<?xml version="1.0" encoding="UTF-8"?>
<svg id="_图层_1" data-name="图层 1" xmlns="http://www.w3.org/2000/svg" viewBox="0 0 28.35 28.35">
  <defs>
    <style>
      .cls-1 {
        fill: #876ca8;
      }
    </style>
  </defs>
  <circle class="cls-1" cx="11.77" cy="3.48" r=".31"/>
  <path class="cls-1" d="M28.35,14.18C28.35,6.35,22,0,14.17,0S0,6.35,0,14.18s6.35,14.17,14.17,14.17,14.18-6.35,14.18-14.17ZM20.42,24.99c-1.89,1.08-3.59,1.28-4.3,1.32.4-.58,1.42-1.96,3.32-3.04,1.89-1.08,3.6-1.28,4.3-1.32-.4.59-1.42,1.96-3.32,3.04ZM14.22,25.27c-.32-.64-1.01-2.23-1.02-4.43,0-2.2.67-3.8.98-4.44.32.64,1.01,2.23,1.02,4.43,0,2.2-.67,3.8-.98,4.44ZM16.19,23.34c.85-.98.85-4.45,0-5.43.85.98,3.86,2.72,4.71,2.72-.85,0-3.86,1.74-4.71,2.72ZM19.46,18.35c-1.91-1.09-2.96-2.48-3.36-3.07.71.04,2.44.24,4.35,1.33,1.91,1.09,2.95,2.48,3.36,3.07-.72-.04-2.44-.24-4.35-1.33ZM5.02,16.89c.85-.98.85-4.45,0-5.43.85.98,3.86,2.72,4.71,2.72-.85,0-3.86,1.74-4.71,2.72ZM23.33,11.46c-.85.98-.85,4.45,0,5.43-.85-.98-3.86-2.72-4.71-2.72.85,0,3.86-1.74,4.71-2.72ZM26.66,14.17c0,2.18-.69,3.75-1,4.39-.31-.64-.98-2.21-.98-4.39s.69-3.75,1-4.39c.31.64.98,2.21.98,4.39ZM20.43,11.69c-1.9,1.11-3.62,1.32-4.34,1.37.4-.59,1.42-1.99,3.33-3.1,1.9-1.11,3.62-1.32,4.34-1.37-.4.6-1.42,1.99-3.33,3.1ZM14.12,3.08c.32.64,1.01,2.23,1.02,4.43s-.67,3.8-.98,4.44c-.32-.64-1.01-2.23-1.02-4.43-.01-2.2.67-3.8.98-4.44ZM16.19,10.45c.85-.98.85-4.45,0-5.43.85.98,3.86,2.72,4.71,2.72-.85,0-3.86,1.74-4.71,2.72ZM20.42,3.36c1.88,1.1,2.9,2.47,3.29,3.06-.71-.05-2.41-.25-4.29-1.35-1.88-1.1-2.9-2.47-3.29-3.06.71.05,2.41.25,4.29,1.35ZM7.93,3.36c1.89-1.08,3.59-1.28,4.3-1.32-.4.59-1.42,1.96-3.32,3.04-1.89,1.08-3.59,1.28-4.3,1.32.4-.59,1.42-1.96,3.32-3.04ZM12.16,5.01c-.85.98-.85,4.45,0,5.43-.85-.98-3.86-2.72-4.71-2.72.85,0,3.86-1.74,4.71-2.72ZM8.89,10c1.91,1.09,2.96,2.48,3.36,3.07-.71-.04-2.44-.24-4.35-1.33-1.91-1.09-2.96-2.48-3.36-3.07.71.04,2.44.24,4.35,1.33ZM1.69,14.18c0-2.18.69-3.75,1-4.39.31.64.98,2.21.98,4.39,0,2.18-.69,3.75-1,4.39-.31-.64-.98-2.21-.98-4.39ZM7.92,16.67c1.9-1.11,3.62-1.32,4.34-1.37-.39.6-1.42,1.99-3.33,3.1-1.9,1.11-3.62,1.32-4.34,1.37.4-.59,1.42-1.99,3.33-3.1ZM12.16,17.9c-.85.98-.85,4.45,0,5.43-.85-.98-3.86-2.72-4.71-2.72.85,0,3.86-1.74,4.71-2.72ZM4.64,21.93c.71.05,2.41.25,4.29,1.35,1.88,1.1,2.9,2.47,3.29,3.06-.71-.05-2.41-.25-4.29-1.35-1.89-1.1-2.9-2.47-3.3-3.06Z"/>
</svg>