<?xml version="1.0" encoding="UTF-8"?>
<svg id="_图层_1" data-name="图层 1" xmlns="http://www.w3.org/2000/svg" viewBox="0 0 28.35 28.35">
  <defs>
    <style>
      .cls-1 {
        fill: #d3df45;
      }
    </style>
  </defs>
  <polygon class="cls-1" points="25.99 14.17 27.66 9.8 22.91 14.17 27.65 18.55 25.99 14.17"/>
  <polygon class="cls-1" points="23.73 7.23 22.51 2.71 21.24 9.03 27.65 9.79 23.73 7.23"/>
  <polygon class="cls-1" points="17.82 2.94 14.18 0 16.87 5.86 22.5 2.71 17.82 2.94"/>
  <polygon class="cls-1" points="10.52 2.94 5.85 2.7 11.47 5.86 14.17 0 10.52 2.94"/>
  <polygon class="cls-1" points="4.61 7.23 .7 9.79 7.1 9.04 5.85 2.72 4.61 7.23"/>
  <polygon class="cls-1" points="2.36 14.18 .69 18.55 5.44 14.18 .7 9.8 2.36 14.18"/>
  <polygon class="cls-1" points="4.62 21.12 5.84 25.64 7.11 19.32 .7 18.56 4.62 21.12"/>
  <polygon class="cls-1" points="10.53 25.41 14.17 28.35 11.48 22.49 5.85 25.64 10.53 25.41"/>
  <polygon class="cls-1" points="17.83 25.41 22.5 25.65 16.88 22.48 14.18 28.34 17.83 25.41"/>
  <polygon class="cls-1" points="23.73 21.12 27.65 18.56 21.25 19.31 22.5 25.63 23.73 21.12"/>
  <g>
    <path class="cls-1" d="M14.48,13.27c-.5-.17-1.04.1-1.21.6s.1,1.04.6,1.21c.5.17,1.04-.1,1.21-.6.17-.5-.1-1.04-.6-1.21ZM14.48,13.27c-.5-.17-1.04.1-1.21.6s.1,1.04.6,1.21c.5.17,1.04-.1,1.21-.6.17-.5-.1-1.04-.6-1.21ZM14.48,13.27c-.5-.17-1.04.1-1.21.6s.1,1.04.6,1.21c.5.17,1.04-.1,1.21-.6.17-.5-.1-1.04-.6-1.21ZM14.48,13.27c-.5-.17-1.04.1-1.21.6s.1,1.04.6,1.21c.5.17,1.04-.1,1.21-.6.17-.5-.1-1.04-.6-1.21ZM14.48,13.27c-.5-.17-1.04.1-1.21.6s.1,1.04.6,1.21c.5.17,1.04-.1,1.21-.6.17-.5-.1-1.04-.6-1.21ZM14.48,13.27c-.5-.17-1.04.1-1.21.6s.1,1.04.6,1.21c.5.17,1.04-.1,1.21-.6.17-.5-.1-1.04-.6-1.21ZM18.55,14.19l-1.89-.81,1.07-1.76-2.01.46-.17-2.05-1.36,1.55-1.35-1.56-.19,2.05-2.01-.47,1.06,1.77-1.9.8,1.89.81-1.07,1.76,2.01-.46.17,2.05,1.36-1.55,1.35,1.56.19-2.05,2.01.47-1.05-1.77,1.9-.8ZM15.75,14.71c-.3.87-1.24,1.34-2.11,1.04-.87-.29-1.34-1.24-1.04-2.11.29-.87,1.24-1.33,2.11-1.04.87.3,1.33,1.24,1.04,2.11ZM14.48,13.27c-.5-.17-1.04.1-1.21.6s.1,1.04.6,1.21c.5.17,1.04-.1,1.21-.6.17-.5-.1-1.04-.6-1.21ZM14.48,13.27c-.5-.17-1.04.1-1.21.6s.1,1.04.6,1.21c.5.17,1.04-.1,1.21-.6.17-.5-.1-1.04-.6-1.21ZM14.48,13.27c-.5-.17-1.04.1-1.21.6s.1,1.04.6,1.21c.5.17,1.04-.1,1.21-.6.17-.5-.1-1.04-.6-1.21ZM14.48,13.27c-.5-.17-1.04.1-1.21.6s.1,1.04.6,1.21c.5.17,1.04-.1,1.21-.6.17-.5-.1-1.04-.6-1.21ZM14.48,13.27c-.5-.17-1.04.1-1.21.6s.1,1.04.6,1.21c.5.17,1.04-.1,1.21-.6.17-.5-.1-1.04-.6-1.21ZM14.48,13.27c-.5-.17-1.04.1-1.21.6s.1,1.04.6,1.21c.5.17,1.04-.1,1.21-.6.17-.5-.1-1.04-.6-1.21ZM14.48,13.27c-.5-.17-1.04.1-1.21.6s.1,1.04.6,1.21c.5.17,1.04-.1,1.21-.6.17-.5-.1-1.04-.6-1.21ZM14.48,13.27c-.5-.17-1.04.1-1.21.6s.1,1.04.6,1.21c.5.17,1.04-.1,1.21-.6.17-.5-.1-1.04-.6-1.21ZM14.48,13.27c-.5-.17-1.04.1-1.21.6s.1,1.04.6,1.21c.5.17,1.04-.1,1.21-.6.17-.5-.1-1.04-.6-1.21ZM14.48,13.27c-.5-.17-1.04.1-1.21.6s.1,1.04.6,1.21c.5.17,1.04-.1,1.21-.6.17-.5-.1-1.04-.6-1.21ZM14.48,13.27c-.5-.17-1.04.1-1.21.6s.1,1.04.6,1.21c.5.17,1.04-.1,1.21-.6.17-.5-.1-1.04-.6-1.21ZM14.48,13.27c-.5-.17-1.04.1-1.21.6s.1,1.04.6,1.21c.5.17,1.04-.1,1.21-.6.17-.5-.1-1.04-.6-1.21ZM14.48,13.27c-.5-.17-1.04.1-1.21.6s.1,1.04.6,1.21c.5.17,1.04-.1,1.21-.6.17-.5-.1-1.04-.6-1.21ZM18.55,14.19l-1.89-.81,1.07-1.76-2.01.46-.17-2.05-1.36,1.55-1.35-1.56-.19,2.05-2.01-.47,1.06,1.77-1.9.8,1.89.81-1.07,1.76,2.01-.46.17,2.05,1.36-1.55,1.35,1.56.19-2.05,2.01.47-1.05-1.77,1.9-.8ZM15.75,14.71c-.3.87-1.24,1.34-2.11,1.04-.87-.29-1.34-1.24-1.04-2.11.29-.87,1.24-1.33,2.11-1.04.87.3,1.33,1.24,1.04,2.11ZM14.48,13.27c-.5-.17-1.04.1-1.21.6s.1,1.04.6,1.21c.5.17,1.04-.1,1.21-.6.17-.5-.1-1.04-.6-1.21ZM14.48,13.27c-.5-.17-1.04.1-1.21.6s.1,1.04.6,1.21c.5.17,1.04-.1,1.21-.6.17-.5-.1-1.04-.6-1.21ZM14.48,13.27c-.5-.17-1.04.1-1.21.6s.1,1.04.6,1.21c.5.17,1.04-.1,1.21-.6.17-.5-.1-1.04-.6-1.21ZM14.48,13.27c-.5-.17-1.04.1-1.21.6s.1,1.04.6,1.21c.5.17,1.04-.1,1.21-.6.17-.5-.1-1.04-.6-1.21ZM14.48,13.27c-.5-.17-1.04.1-1.21.6s.1,1.04.6,1.21c.5.17,1.04-.1,1.21-.6.17-.5-.1-1.04-.6-1.21ZM14.48,13.27c-.5-.17-1.04.1-1.21.6s.1,1.04.6,1.21c.5.17,1.04-.1,1.21-.6.17-.5-.1-1.04-.6-1.21ZM14.48,13.27c-.5-.17-1.04.1-1.21.6s.1,1.04.6,1.21c.5.17,1.04-.1,1.21-.6.17-.5-.1-1.04-.6-1.21ZM14.48,13.27c-.5-.17-1.04.1-1.21.6s.1,1.04.6,1.21c.5.17,1.04-.1,1.21-.6.17-.5-.1-1.04-.6-1.21ZM14.48,13.27c-.5-.17-1.04.1-1.21.6s.1,1.04.6,1.21c.5.17,1.04-.1,1.21-.6.17-.5-.1-1.04-.6-1.21ZM14.48,13.27c-.5-.17-1.04.1-1.21.6s.1,1.04.6,1.21c.5.17,1.04-.1,1.21-.6.17-.5-.1-1.04-.6-1.21ZM14.48,13.27c-.5-.17-1.04.1-1.21.6s.1,1.04.6,1.21c.5.17,1.04-.1,1.21-.6.17-.5-.1-1.04-.6-1.21ZM14.48,13.27c-.5-.17-1.04.1-1.21.6s.1,1.04.6,1.21c.5.17,1.04-.1,1.21-.6.17-.5-.1-1.04-.6-1.21ZM14.48,13.27c-.5-.17-1.04.1-1.21.6s.1,1.04.6,1.21c.5.17,1.04-.1,1.21-.6.17-.5-.1-1.04-.6-1.21ZM18.55,14.19l-1.89-.81,1.07-1.76-2.01.46-.17-2.05-1.36,1.55-1.35-1.56-.19,2.05-2.01-.47,1.06,1.77-1.9.8,1.89.81-1.07,1.76,2.01-.46.17,2.05,1.36-1.55,1.35,1.56.19-2.05,2.01.47-1.05-1.77,1.9-.8ZM15.75,14.71c-.3.87-1.24,1.34-2.11,1.04-.87-.29-1.34-1.24-1.04-2.11.29-.87,1.24-1.33,2.11-1.04.87.3,1.33,1.24,1.04,2.11ZM14.48,13.27c-.5-.17-1.04.1-1.21.6s.1,1.04.6,1.21c.5.17,1.04-.1,1.21-.6.17-.5-.1-1.04-.6-1.21ZM14.48,13.27c-.5-.17-1.04.1-1.21.6s.1,1.04.6,1.21c.5.17,1.04-.1,1.21-.6.17-.5-.1-1.04-.6-1.21ZM14.48,13.27c-.5-.17-1.04.1-1.21.6s.1,1.04.6,1.21c.5.17,1.04-.1,1.21-.6.17-.5-.1-1.04-.6-1.21ZM14.48,13.27c-.5-.17-1.04.1-1.21.6s.1,1.04.6,1.21c.5.17,1.04-.1,1.21-.6.17-.5-.1-1.04-.6-1.21ZM14.48,13.27c-.5-.17-1.04.1-1.21.6s.1,1.04.6,1.21c.5.17,1.04-.1,1.21-.6.17-.5-.1-1.04-.6-1.21ZM14.48,13.27c-.5-.17-1.04.1-1.21.6s.1,1.04.6,1.21c.5.17,1.04-.1,1.21-.6.17-.5-.1-1.04-.6-1.21ZM14.48,13.27c-.5-.17-1.04.1-1.21.6s.1,1.04.6,1.21c.5.17,1.04-.1,1.21-.6.17-.5-.1-1.04-.6-1.21ZM14.48,13.27c-.5-.17-1.04.1-1.21.6s.1,1.04.6,1.21c.5.17,1.04-.1,1.21-.6.17-.5-.1-1.04-.6-1.21ZM14.48,13.27c-.5-.17-1.04.1-1.21.6s.1,1.04.6,1.21c.5.17,1.04-.1,1.21-.6.17-.5-.1-1.04-.6-1.21ZM14.48,13.27c-.5-.17-1.04.1-1.21.6s.1,1.04.6,1.21c.5.17,1.04-.1,1.21-.6.17-.5-.1-1.04-.6-1.21ZM14.48,13.27c-.5-.17-1.04.1-1.21.6s.1,1.04.6,1.21c.5.17,1.04-.1,1.21-.6.17-.5-.1-1.04-.6-1.21ZM14.48,13.27c-.5-.17-1.04.1-1.21.6s.1,1.04.6,1.21c.5.17,1.04-.1,1.21-.6.17-.5-.1-1.04-.6-1.21ZM14.48,13.27c-.5-.17-1.04.1-1.21.6s.1,1.04.6,1.21c.5.17,1.04-.1,1.21-.6.17-.5-.1-1.04-.6-1.21ZM18.55,14.19l-1.89-.81,1.07-1.76-2.01.46-.17-2.05-1.36,1.55-1.35-1.56-.19,2.05-2.01-.47,1.06,1.77-1.9.8,1.89.81-1.07,1.76,2.01-.46.17,2.05,1.36-1.55,1.35,1.56.19-2.05,2.01.47-1.05-1.77,1.9-.8ZM15.75,14.71c-.3.87-1.24,1.34-2.11,1.04-.87-.29-1.34-1.24-1.04-2.11.29-.87,1.24-1.33,2.11-1.04.87.3,1.33,1.24,1.04,2.11ZM14.48,13.27c-.5-.17-1.04.1-1.21.6s.1,1.04.6,1.21c.5.17,1.04-.1,1.21-.6.17-.5-.1-1.04-.6-1.21ZM14.48,13.27c-.5-.17-1.04.1-1.21.6s.1,1.04.6,1.21c.5.17,1.04-.1,1.21-.6.17-.5-.1-1.04-.6-1.21ZM14.48,13.27c-.5-.17-1.04.1-1.21.6s.1,1.04.6,1.21c.5.17,1.04-.1,1.21-.6.17-.5-.1-1.04-.6-1.21ZM14.48,13.27c-.5-.17-1.04.1-1.21.6s.1,1.04.6,1.21c.5.17,1.04-.1,1.21-.6.17-.5-.1-1.04-.6-1.21ZM14.48,13.27c-.5-.17-1.04.1-1.21.6s.1,1.04.6,1.21c.5.17,1.04-.1,1.21-.6.17-.5-.1-1.04-.6-1.21ZM14.48,13.27c-.5-.17-1.04.1-1.21.6s.1,1.04.6,1.21c.5.17,1.04-.1,1.21-.6.17-.5-.1-1.04-.6-1.21ZM14.48,13.27c-.5-.17-1.04.1-1.21.6s.1,1.04.6,1.21c.5.17,1.04-.1,1.21-.6.17-.5-.1-1.04-.6-1.21ZM14.48,13.27c-.5-.17-1.04.1-1.21.6s.1,1.04.6,1.21c.5.17,1.04-.1,1.21-.6.17-.5-.1-1.04-.6-1.21ZM14.48,13.27c-.5-.17-1.04.1-1.21.6s.1,1.04.6,1.21c.5.17,1.04-.1,1.21-.6.17-.5-.1-1.04-.6-1.21ZM14.48,13.27c-.5-.17-1.04.1-1.21.6s.1,1.04.6,1.21c.5.17,1.04-.1,1.21-.6.17-.5-.1-1.04-.6-1.21ZM14.48,13.27c-.5-.17-1.04.1-1.21.6s.1,1.04.6,1.21c.5.17,1.04-.1,1.21-.6.17-.5-.1-1.04-.6-1.21ZM14.48,13.27c-.5-.17-1.04.1-1.21.6s.1,1.04.6,1.21c.5.17,1.04-.1,1.21-.6.17-.5-.1-1.04-.6-1.21ZM14.48,13.27c-.5-.17-1.04.1-1.21.6s.1,1.04.6,1.21c.5.17,1.04-.1,1.21-.6.17-.5-.1-1.04-.6-1.21ZM18.55,14.19l-1.89-.81,1.07-1.76-2.01.46-.17-2.05-1.36,1.55-1.35-1.56-.19,2.05-2.01-.47,1.06,1.77-1.9.8,1.89.81-1.07,1.76,2.01-.46.17,2.05,1.36-1.55,1.35,1.56.19-2.05,2.01.47-1.05-1.77,1.9-.8ZM15.75,14.71c-.3.87-1.24,1.34-2.11,1.04-.87-.29-1.34-1.24-1.04-2.11.29-.87,1.24-1.33,2.11-1.04.87.3,1.33,1.24,1.04,2.11ZM14.48,13.27c-.5-.17-1.04.1-1.21.6s.1,1.04.6,1.21c.5.17,1.04-.1,1.21-.6.17-.5-.1-1.04-.6-1.21ZM14.48,13.27c-.5-.17-1.04.1-1.21.6s.1,1.04.6,1.21c.5.17,1.04-.1,1.21-.6.17-.5-.1-1.04-.6-1.21ZM14.48,13.27c-.5-.17-1.04.1-1.21.6s.1,1.04.6,1.21c.5.17,1.04-.1,1.21-.6.17-.5-.1-1.04-.6-1.21ZM14.48,13.27c-.5-.17-1.04.1-1.21.6s.1,1.04.6,1.21c.5.17,1.04-.1,1.21-.6.17-.5-.1-1.04-.6-1.21ZM14.48,13.27c-.5-.17-1.04.1-1.21.6s.1,1.04.6,1.21c.5.17,1.04-.1,1.21-.6.17-.5-.1-1.04-.6-1.21ZM14.48,13.27c-.5-.17-1.04.1-1.21.6s.1,1.04.6,1.21c.5.17,1.04-.1,1.21-.6.17-.5-.1-1.04-.6-1.21ZM14.48,13.27c-.5-.17-1.04.1-1.21.6s.1,1.04.6,1.21c.5.17,1.04-.1,1.21-.6.17-.5-.1-1.04-.6-1.21ZM14.48,13.27c-.5-.17-1.04.1-1.21.6s.1,1.04.6,1.21c.5.17,1.04-.1,1.21-.6.17-.5-.1-1.04-.6-1.21ZM14.48,13.27c-.5-.17-1.04.1-1.21.6s.1,1.04.6,1.21c.5.17,1.04-.1,1.21-.6.17-.5-.1-1.04-.6-1.21ZM18.55,14.19l-1.89-.81,1.07-1.76-2.01.46-.17-2.05-1.36,1.55-1.35-1.56-.19,2.05-2.01-.47,1.06,1.77-1.9.8,1.89.81-1.07,1.76,2.01-.46.17,2.05,1.36-1.55,1.35,1.56.19-2.05,2.01.47-1.05-1.77,1.9-.8ZM15.75,14.71c-.3.87-1.24,1.34-2.11,1.04-.87-.29-1.34-1.24-1.04-2.11.29-.87,1.24-1.33,2.11-1.04.87.3,1.33,1.24,1.04,2.11ZM14.48,13.27c-.5-.17-1.04.1-1.21.6s.1,1.04.6,1.21c.5.17,1.04-.1,1.21-.6.17-.5-.1-1.04-.6-1.21ZM14.48,13.27c-.5-.17-1.04.1-1.21.6s.1,1.04.6,1.21c.5.17,1.04-.1,1.21-.6.17-.5-.1-1.04-.6-1.21ZM14.48,13.27c-.5-.17-1.04.1-1.21.6s.1,1.04.6,1.21c.5.17,1.04-.1,1.21-.6.17-.5-.1-1.04-.6-1.21ZM14.48,13.27c-.5-.17-1.04.1-1.21.6s.1,1.04.6,1.21c.5.17,1.04-.1,1.21-.6.17-.5-.1-1.04-.6-1.21ZM14.48,13.27c-.5-.17-1.04.1-1.21.6s.1,1.04.6,1.21c.5.17,1.04-.1,1.21-.6.17-.5-.1-1.04-.6-1.21ZM14.48,13.27c-.5-.17-1.04.1-1.21.6s.1,1.04.6,1.21c.5.17,1.04-.1,1.21-.6.17-.5-.1-1.04-.6-1.21ZM14.48,13.27c-.5-.17-1.04.1-1.21.6s.1,1.04.6,1.21c.5.17,1.04-.1,1.21-.6.17-.5-.1-1.04-.6-1.21ZM14.48,13.27c-.5-.17-1.04.1-1.21.6s.1,1.04.6,1.21c.5.17,1.04-.1,1.21-.6.17-.5-.1-1.04-.6-1.21ZM14.48,13.27c-.5-.17-1.04.1-1.21.6s.1,1.04.6,1.21c.5.17,1.04-.1,1.21-.6.17-.5-.1-1.04-.6-1.21ZM18.55,14.19l-1.89-.81,1.07-1.76-2.01.46-.17-2.05-1.36,1.55-1.35-1.56-.19,2.05-2.01-.47,1.06,1.77-1.9.8,1.89.81-1.07,1.76,2.01-.46.17,2.05,1.36-1.55,1.35,1.56.19-2.05,2.01.47-1.05-1.77,1.9-.8ZM15.75,14.71c-.3.87-1.24,1.34-2.11,1.04-.87-.29-1.34-1.24-1.04-2.11.29-.87,1.24-1.33,2.11-1.04.87.3,1.33,1.24,1.04,2.11ZM14.48,13.27c-.5-.17-1.04.1-1.21.6s.1,1.04.6,1.21c.5.17,1.04-.1,1.21-.6.17-.5-.1-1.04-.6-1.21ZM14.48,13.27c-.5-.17-1.04.1-1.21.6s.1,1.04.6,1.21c.5.17,1.04-.1,1.21-.6.17-.5-.1-1.04-.6-1.21ZM14.48,13.27c-.5-.17-1.04.1-1.21.6s.1,1.04.6,1.21c.5.17,1.04-.1,1.21-.6.17-.5-.1-1.04-.6-1.21ZM14.48,13.27c-.5-.17-1.04.1-1.21.6s.1,1.04.6,1.21c.5.17,1.04-.1,1.21-.6.17-.5-.1-1.04-.6-1.21ZM14.48,13.27c-.5-.17-1.04.1-1.21.6s.1,1.04.6,1.21c.5.17,1.04-.1,1.21-.6.17-.5-.1-1.04-.6-1.21ZM18.55,14.19l-1.89-.81,1.07-1.76-2.01.46-.17-2.05-1.36,1.55-1.35-1.56-.19,2.05-2.01-.47,1.06,1.77-1.9.8,1.89.81-1.07,1.76,2.01-.46.17,2.05,1.36-1.55,1.35,1.56.19-2.05,2.01.47-1.05-1.77,1.9-.8ZM15.75,14.71c-.3.87-1.24,1.34-2.11,1.04-.87-.29-1.34-1.24-1.04-2.11.29-.87,1.24-1.33,2.11-1.04.87.3,1.33,1.24,1.04,2.11ZM14.48,13.27c-.5-.17-1.04.1-1.21.6s.1,1.04.6,1.21c.5.17,1.04-.1,1.21-.6.17-.5-.1-1.04-.6-1.21ZM14.48,13.27c-.5-.17-1.04.1-1.21.6s.1,1.04.6,1.21c.5.17,1.04-.1,1.21-.6.17-.5-.1-1.04-.6-1.21ZM14.48,13.27c-.5-.17-1.04.1-1.21.6s.1,1.04.6,1.21c.5.17,1.04-.1,1.21-.6.17-.5-.1-1.04-.6-1.21ZM14.48,13.27c-.5-.17-1.04.1-1.21.6s.1,1.04.6,1.21c.5.17,1.04-.1,1.21-.6.17-.5-.1-1.04-.6-1.21ZM14.48,13.27c-.5-.17-1.04.1-1.21.6s.1,1.04.6,1.21c.5.17,1.04-.1,1.21-.6.17-.5-.1-1.04-.6-1.21ZM18.55,14.19l-1.89-.81,1.07-1.76-2.01.46-.17-2.05-1.36,1.55-1.35-1.56-.19,2.05-2.01-.47,1.06,1.77-1.9.8,1.89.81-1.07,1.76,2.01-.46.17,2.05,1.36-1.55,1.35,1.56.19-2.05,2.01.47-1.05-1.77,1.9-.8ZM15.75,14.71c-.3.87-1.24,1.34-2.11,1.04-.87-.29-1.34-1.24-1.04-2.11.29-.87,1.24-1.33,2.11-1.04.87.3,1.33,1.24,1.04,2.11ZM14.48,13.27c-.5-.17-1.04.1-1.21.6s.1,1.04.6,1.21c.5.17,1.04-.1,1.21-.6.17-.5-.1-1.04-.6-1.21ZM18.55,14.19l-1.89-.81,1.07-1.76-2.01.46-.17-2.05-1.36,1.55-1.35-1.56-.19,2.05-2.01-.47,1.06,1.77-1.9.8,1.89.81-1.07,1.76,2.01-.46.17,2.05,1.36-1.55,1.35,1.56.19-2.05,2.01.47-1.05-1.77,1.9-.8ZM15.75,14.71c-.3.87-1.24,1.34-2.11,1.04-.87-.29-1.34-1.24-1.04-2.11.29-.87,1.24-1.33,2.11-1.04.87.3,1.33,1.24,1.04,2.11ZM14.48,13.27c-.5-.17-1.04.1-1.21.6s.1,1.04.6,1.21c.5.17,1.04-.1,1.21-.6.17-.5-.1-1.04-.6-1.21ZM22.9,11.32l-3.34-4.59-5.4-1.74-5.4,1.76-3.33,4.6v5.68s3.35,4.59,3.35,4.59l5.4,1.74,5.4-1.76,3.33-4.6v-5.68ZM8.06,17.18c-.48-.2-.97-.4-1.45-.61.28-.44.55-.88.83-1.32.43.05.79.36.92.77.13.41.01.87-.3,1.16ZM8.4,12.25c-.14.41-.5.71-.93.76-.27-.45-.55-.89-.82-1.34.48-.19.97-.39,1.45-.58.32.3.43.75.29,1.16ZM14.23,6.24c.33.4.67.8,1,1.2-.19.39-.58.64-1.02.64-.43,0-.83-.26-1.01-.65.34-.4.68-.79,1.02-1.19ZM9.56,7.72c.5.13,1.01.26,1.52.38.08.43-.09.86-.45,1.12-.35.25-.82.28-1.2.07.04-.52.09-1.04.13-1.57ZM10.99,20.2c-.51.12-1.02.24-1.53.36-.04-.52-.07-1.04-.1-1.56.38-.21.85-.18,1.2.08.35.26.52.69.43,1.12ZM14.12,22.11c-.34-.4-.67-.8-1-1.2.19-.39.58-.64,1.02-.64.43,0,.83.26,1.01.65-.34.4-.68.79-1.02,1.19ZM11.59,17.74c-1.97-1.43-2.41-4.18-.99-6.15,1.43-1.97,4.18-2.41,6.15-.98,1.97,1.42,2.41,4.18.99,6.15-1.42,1.97-4.18,2.41-6.15.99ZM18.79,20.63c-.51-.13-1.01-.26-1.52-.38-.08-.43.09-.86.45-1.12.35-.25.82-.28,1.2-.07-.04.52-.09,1.04-.13,1.57ZM17.79,9.27c-.35-.26-.52-.69-.44-1.12.51-.12,1.02-.24,1.53-.36.04.52.07,1.04.11,1.56-.38.21-.85.18-1.2-.08ZM20.25,17.26c-.32-.3-.43-.75-.3-1.17.14-.41.5-.71.93-.76.27.45.54.89.82,1.34-.48.19-.97.39-1.45.58ZM20.9,13.1c-.43-.05-.79-.36-.92-.77-.13-.41-.01-.87.31-1.16.48.2.97.4,1.45.6-.28.44-.56.88-.83,1.32ZM18.55,14.19l-1.89-.81,1.07-1.76-2.01.46-.17-2.05-1.36,1.55-1.35-1.56-.19,2.05-2.01-.47,1.06,1.77-1.9.8,1.89.81-1.07,1.76,2.01-.46.17,2.05,1.36-1.55,1.35,1.56.19-2.05,2.01.47-1.05-1.77,1.9-.8ZM15.75,14.71c-.3.87-1.24,1.34-2.11,1.04-.87-.29-1.34-1.24-1.04-2.11.29-.87,1.24-1.33,2.11-1.04.87.3,1.33,1.24,1.04,2.11ZM14.48,13.27c-.5-.17-1.04.1-1.21.6s.1,1.04.6,1.21c.5.17,1.04-.1,1.21-.6.17-.5-.1-1.04-.6-1.21ZM14.48,13.27c-.5-.17-1.04.1-1.21.6s.1,1.04.6,1.21c.5.17,1.04-.1,1.21-.6.17-.5-.1-1.04-.6-1.21ZM14.48,13.27c-.5-.17-1.04.1-1.21.6s.1,1.04.6,1.21c.5.17,1.04-.1,1.21-.6.17-.5-.1-1.04-.6-1.21ZM18.55,14.19l-1.89-.81,1.07-1.76-2.01.46-.17-2.05-1.36,1.55-1.35-1.56-.19,2.05-2.01-.47,1.06,1.77-1.9.8,1.89.81-1.07,1.76,2.01-.46.17,2.05,1.36-1.55,1.35,1.56.19-2.05,2.01.47-1.05-1.77,1.9-.8ZM15.75,14.71c-.3.87-1.24,1.34-2.11,1.04-.87-.29-1.34-1.24-1.04-2.11.29-.87,1.24-1.33,2.11-1.04.87.3,1.33,1.24,1.04,2.11ZM14.48,13.27c-.5-.17-1.04.1-1.21.6s.1,1.04.6,1.21c.5.17,1.04-.1,1.21-.6.17-.5-.1-1.04-.6-1.21ZM14.48,13.27c-.5-.17-1.04.1-1.21.6s.1,1.04.6,1.21c.5.17,1.04-.1,1.21-.6.17-.5-.1-1.04-.6-1.21ZM14.48,13.27c-.5-.17-1.04.1-1.21.6s.1,1.04.6,1.21c.5.17,1.04-.1,1.21-.6.17-.5-.1-1.04-.6-1.21ZM18.55,14.19l-1.89-.81,1.07-1.76-2.01.46-.17-2.05-1.36,1.55-1.35-1.56-.19,2.05-2.01-.47,1.06,1.77-1.9.8,1.89.81-1.07,1.76,2.01-.46.17,2.05,1.36-1.55,1.35,1.56.19-2.05,2.01.47-1.05-1.77,1.9-.8ZM15.75,14.71c-.3.87-1.24,1.34-2.11,1.04-.87-.29-1.34-1.24-1.04-2.11.29-.87,1.24-1.33,2.11-1.04.87.3,1.33,1.24,1.04,2.11ZM14.48,13.27c-.5-.17-1.04.1-1.21.6s.1,1.04.6,1.21c.5.17,1.04-.1,1.21-.6.17-.5-.1-1.04-.6-1.21ZM14.48,13.27c-.5-.17-1.04.1-1.21.6s.1,1.04.6,1.21c.5.17,1.04-.1,1.21-.6.17-.5-.1-1.04-.6-1.21ZM14.48,13.27c-.5-.17-1.04.1-1.21.6s.1,1.04.6,1.21c.5.17,1.04-.1,1.21-.6.17-.5-.1-1.04-.6-1.21ZM14.48,13.27c-.5-.17-1.04.1-1.21.6s.1,1.04.6,1.21c.5.17,1.04-.1,1.21-.6.17-.5-.1-1.04-.6-1.21ZM14.48,13.27c-.5-.17-1.04.1-1.21.6s.1,1.04.6,1.21c.5.17,1.04-.1,1.21-.6.17-.5-.1-1.04-.6-1.21ZM14.48,13.27c-.5-.17-1.04.1-1.21.6s.1,1.04.6,1.21c.5.17,1.04-.1,1.21-.6.17-.5-.1-1.04-.6-1.21ZM14.48,13.27c-.5-.17-1.04.1-1.21.6s.1,1.04.6,1.21c.5.17,1.04-.1,1.21-.6.17-.5-.1-1.04-.6-1.21ZM18.55,14.19l-1.89-.81,1.07-1.76-2.01.46-.17-2.05-1.36,1.55-1.35-1.56-.19,2.05-2.01-.47,1.06,1.77-1.9.8,1.89.81-1.07,1.76,2.01-.46.17,2.05,1.36-1.55,1.35,1.56.19-2.05,2.01.47-1.05-1.77,1.9-.8ZM15.75,14.71c-.3.87-1.24,1.34-2.11,1.04-.87-.29-1.34-1.24-1.04-2.11.29-.87,1.24-1.33,2.11-1.04.87.3,1.33,1.24,1.04,2.11ZM14.48,13.27c-.5-.17-1.04.1-1.21.6s.1,1.04.6,1.21c.5.17,1.04-.1,1.21-.6.17-.5-.1-1.04-.6-1.21ZM14.48,13.27c-.5-.17-1.04.1-1.21.6s.1,1.04.6,1.21c.5.17,1.04-.1,1.21-.6.17-.5-.1-1.04-.6-1.21ZM14.48,13.27c-.5-.17-1.04.1-1.21.6s.1,1.04.6,1.21c.5.17,1.04-.1,1.21-.6.17-.5-.1-1.04-.6-1.21ZM14.48,13.27c-.5-.17-1.04.1-1.21.6s.1,1.04.6,1.21c.5.17,1.04-.1,1.21-.6.17-.5-.1-1.04-.6-1.21ZM14.48,13.27c-.5-.17-1.04.1-1.21.6s.1,1.04.6,1.21c.5.17,1.04-.1,1.21-.6.17-.5-.1-1.04-.6-1.21ZM14.48,13.27c-.5-.17-1.04.1-1.21.6s.1,1.04.6,1.21c.5.17,1.04-.1,1.21-.6.17-.5-.1-1.04-.6-1.21ZM14.48,13.27c-.5-.17-1.04.1-1.21.6s.1,1.04.6,1.21c.5.17,1.04-.1,1.21-.6.17-.5-.1-1.04-.6-1.21ZM18.55,14.19l-1.89-.81,1.07-1.76-2.01.46-.17-2.05-1.36,1.55-1.35-1.56-.19,2.05-2.01-.47,1.06,1.77-1.9.8,1.89.81-1.07,1.76,2.01-.46.17,2.05,1.36-1.55,1.35,1.56.19-2.05,2.01.47-1.05-1.77,1.9-.8ZM15.75,14.71c-.3.87-1.24,1.34-2.11,1.04-.87-.29-1.34-1.24-1.04-2.11.29-.87,1.24-1.33,2.11-1.04.87.3,1.33,1.24,1.04,2.11ZM14.48,13.27c-.5-.17-1.04.1-1.21.6s.1,1.04.6,1.21c.5.17,1.04-.1,1.21-.6.17-.5-.1-1.04-.6-1.21ZM14.48,13.27c-.5-.17-1.04.1-1.21.6s.1,1.04.6,1.21c.5.17,1.04-.1,1.21-.6.17-.5-.1-1.04-.6-1.21ZM14.48,13.27c-.5-.17-1.04.1-1.21.6s.1,1.04.6,1.21c.5.17,1.04-.1,1.21-.6.17-.5-.1-1.04-.6-1.21ZM14.48,13.27c-.5-.17-1.04.1-1.21.6s.1,1.04.6,1.21c.5.17,1.04-.1,1.21-.6.17-.5-.1-1.04-.6-1.21ZM14.48,13.27c-.5-.17-1.04.1-1.21.6s.1,1.04.6,1.21c.5.17,1.04-.1,1.21-.6.17-.5-.1-1.04-.6-1.21ZM14.48,13.27c-.5-.17-1.04.1-1.21.6s.1,1.04.6,1.21c.5.17,1.04-.1,1.21-.6.17-.5-.1-1.04-.6-1.21ZM14.48,13.27c-.5-.17-1.04.1-1.21.6s.1,1.04.6,1.21c.5.17,1.04-.1,1.21-.6.17-.5-.1-1.04-.6-1.21ZM14.48,13.27c-.5-.17-1.04.1-1.21.6s.1,1.04.6,1.21c.5.17,1.04-.1,1.21-.6.17-.5-.1-1.04-.6-1.21ZM14.48,13.27c-.5-.17-1.04.1-1.21.6s.1,1.04.6,1.21c.5.17,1.04-.1,1.21-.6.17-.5-.1-1.04-.6-1.21ZM14.48,13.27c-.5-.17-1.04.1-1.21.6s.1,1.04.6,1.21c.5.17,1.04-.1,1.21-.6.17-.5-.1-1.04-.6-1.21ZM14.48,13.27c-.5-.17-1.04.1-1.21.6s.1,1.04.6,1.21c.5.17,1.04-.1,1.21-.6.17-.5-.1-1.04-.6-1.21ZM18.55,14.19l-1.89-.81,1.07-1.76-2.01.46-.17-2.05-1.36,1.55-1.35-1.56-.19,2.05-2.01-.47,1.06,1.77-1.9.8,1.89.81-1.07,1.76,2.01-.46.17,2.05,1.36-1.55,1.35,1.56.19-2.05,2.01.47-1.05-1.77,1.9-.8ZM15.75,14.71c-.3.87-1.24,1.34-2.11,1.04-.87-.29-1.34-1.24-1.04-2.11.29-.87,1.24-1.33,2.11-1.04.87.3,1.33,1.24,1.04,2.11ZM14.48,13.27c-.5-.17-1.04.1-1.21.6s.1,1.04.6,1.21c.5.17,1.04-.1,1.21-.6.17-.5-.1-1.04-.6-1.21ZM14.48,13.27c-.5-.17-1.04.1-1.21.6s.1,1.04.6,1.21c.5.17,1.04-.1,1.21-.6.17-.5-.1-1.04-.6-1.21ZM14.48,13.27c-.5-.17-1.04.1-1.21.6s.1,1.04.6,1.21c.5.17,1.04-.1,1.21-.6.17-.5-.1-1.04-.6-1.21ZM14.48,13.27c-.5-.17-1.04.1-1.21.6s.1,1.04.6,1.21c.5.17,1.04-.1,1.21-.6.17-.5-.1-1.04-.6-1.21ZM14.48,13.27c-.5-.17-1.04.1-1.21.6s.1,1.04.6,1.21c.5.17,1.04-.1,1.21-.6.17-.5-.1-1.04-.6-1.21ZM14.48,13.27c-.5-.17-1.04.1-1.21.6s.1,1.04.6,1.21c.5.17,1.04-.1,1.21-.6.17-.5-.1-1.04-.6-1.21ZM14.48,13.27c-.5-.17-1.04.1-1.21.6s.1,1.04.6,1.21c.5.17,1.04-.1,1.21-.6.17-.5-.1-1.04-.6-1.21ZM14.48,13.27c-.5-.17-1.04.1-1.21.6s.1,1.04.6,1.21c.5.17,1.04-.1,1.21-.6.17-.5-.1-1.04-.6-1.21ZM14.48,13.27c-.5-.17-1.04.1-1.21.6s.1,1.04.6,1.21c.5.17,1.04-.1,1.21-.6.17-.5-.1-1.04-.6-1.21ZM14.48,13.27c-.5-.17-1.04.1-1.21.6s.1,1.04.6,1.21c.5.17,1.04-.1,1.21-.6.17-.5-.1-1.04-.6-1.21ZM14.48,13.27c-.5-.17-1.04.1-1.21.6s.1,1.04.6,1.21c.5.17,1.04-.1,1.21-.6.17-.5-.1-1.04-.6-1.21ZM18.55,14.19l-1.89-.81,1.07-1.76-2.01.46-.17-2.05-1.36,1.55-1.35-1.56-.19,2.05-2.01-.47,1.06,1.77-1.9.8,1.89.81-1.07,1.76,2.01-.46.17,2.05,1.36-1.55,1.35,1.56.19-2.05,2.01.47-1.05-1.77,1.9-.8ZM15.75,14.71c-.3.87-1.24,1.34-2.11,1.04-.87-.29-1.34-1.24-1.04-2.11.29-.87,1.24-1.33,2.11-1.04.87.3,1.33,1.24,1.04,2.11ZM14.48,13.27c-.5-.17-1.04.1-1.21.6s.1,1.04.6,1.21c.5.17,1.04-.1,1.21-.6.17-.5-.1-1.04-.6-1.21ZM14.48,13.27c-.5-.17-1.04.1-1.21.6s.1,1.04.6,1.21c.5.17,1.04-.1,1.21-.6.17-.5-.1-1.04-.6-1.21ZM14.48,13.27c-.5-.17-1.04.1-1.21.6s.1,1.04.6,1.21c.5.17,1.04-.1,1.21-.6.17-.5-.1-1.04-.6-1.21ZM14.48,13.27c-.5-.17-1.04.1-1.21.6s.1,1.04.6,1.21c.5.17,1.04-.1,1.21-.6.17-.5-.1-1.04-.6-1.21ZM14.48,13.27c-.5-.17-1.04.1-1.21.6s.1,1.04.6,1.21c.5.17,1.04-.1,1.21-.6.17-.5-.1-1.04-.6-1.21ZM14.48,13.27c-.5-.17-1.04.1-1.21.6s.1,1.04.6,1.21c.5.17,1.04-.1,1.21-.6.17-.5-.1-1.04-.6-1.21ZM14.48,13.27c-.5-.17-1.04.1-1.21.6s.1,1.04.6,1.21c.5.17,1.04-.1,1.21-.6.17-.5-.1-1.04-.6-1.21ZM14.48,13.27c-.5-.17-1.04.1-1.21.6s.1,1.04.6,1.21c.5.17,1.04-.1,1.21-.6.17-.5-.1-1.04-.6-1.21ZM14.48,13.27c-.5-.17-1.04.1-1.21.6s.1,1.04.6,1.21c.5.17,1.04-.1,1.21-.6.17-.5-.1-1.04-.6-1.21ZM14.48,13.27c-.5-.17-1.04.1-1.21.6s.1,1.04.6,1.21c.5.17,1.04-.1,1.21-.6.17-.5-.1-1.04-.6-1.21ZM14.48,13.27c-.5-.17-1.04.1-1.21.6s.1,1.04.6,1.21c.5.17,1.04-.1,1.21-.6.17-.5-.1-1.04-.6-1.21ZM14.48,13.27c-.5-.17-1.04.1-1.21.6s.1,1.04.6,1.21c.5.17,1.04-.1,1.21-.6.17-.5-.1-1.04-.6-1.21ZM14.48,13.27c-.5-.17-1.04.1-1.21.6s.1,1.04.6,1.21c.5.17,1.04-.1,1.21-.6.17-.5-.1-1.04-.6-1.21ZM18.55,14.19l-1.89-.81,1.07-1.76-2.01.46-.17-2.05-1.36,1.55-1.35-1.56-.19,2.05-2.01-.47,1.06,1.77-1.9.8,1.89.81-1.07,1.76,2.01-.46.17,2.05,1.36-1.55,1.35,1.56.19-2.05,2.01.47-1.05-1.77,1.9-.8ZM15.75,14.71c-.3.87-1.24,1.34-2.11,1.04-.87-.29-1.34-1.24-1.04-2.11.29-.87,1.24-1.33,2.11-1.04.87.3,1.33,1.24,1.04,2.11ZM14.48,13.27c-.5-.17-1.04.1-1.21.6s.1,1.04.6,1.21c.5.17,1.04-.1,1.21-.6.17-.5-.1-1.04-.6-1.21ZM14.48,13.27c-.5-.17-1.04.1-1.21.6s.1,1.04.6,1.21c.5.17,1.04-.1,1.21-.6.17-.5-.1-1.04-.6-1.21ZM14.48,13.27c-.5-.17-1.04.1-1.21.6s.1,1.04.6,1.21c.5.17,1.04-.1,1.21-.6.17-.5-.1-1.04-.6-1.21ZM14.48,13.27c-.5-.17-1.04.1-1.21.6s.1,1.04.6,1.21c.5.17,1.04-.1,1.21-.6.17-.5-.1-1.04-.6-1.21ZM14.48,13.27c-.5-.17-1.04.1-1.21.6s.1,1.04.6,1.21c.5.17,1.04-.1,1.21-.6.17-.5-.1-1.04-.6-1.21ZM14.48,13.27c-.5-.17-1.04.1-1.21.6s.1,1.04.6,1.21c.5.17,1.04-.1,1.21-.6.17-.5-.1-1.04-.6-1.21ZM14.48,13.27c-.5-.17-1.04.1-1.21.6s.1,1.04.6,1.21c.5.17,1.04-.1,1.21-.6.17-.5-.1-1.04-.6-1.21ZM14.48,13.27c-.5-.17-1.04.1-1.21.6s.1,1.04.6,1.21c.5.17,1.04-.1,1.21-.6.17-.5-.1-1.04-.6-1.21ZM14.48,13.27c-.5-.17-1.04.1-1.21.6s.1,1.04.6,1.21c.5.17,1.04-.1,1.21-.6.17-.5-.1-1.04-.6-1.21ZM14.48,13.27c-.5-.17-1.04.1-1.21.6s.1,1.04.6,1.21c.5.17,1.04-.1,1.21-.6.17-.5-.1-1.04-.6-1.21ZM14.48,13.27c-.5-.17-1.04.1-1.21.6s.1,1.04.6,1.21c.5.17,1.04-.1,1.21-.6.17-.5-.1-1.04-.6-1.21ZM14.48,13.27c-.5-.17-1.04.1-1.21.6s.1,1.04.6,1.21c.5.17,1.04-.1,1.21-.6.17-.5-.1-1.04-.6-1.21ZM14.48,13.27c-.5-.17-1.04.1-1.21.6s.1,1.04.6,1.21c.5.17,1.04-.1,1.21-.6.17-.5-.1-1.04-.6-1.21ZM18.55,14.19l-1.89-.81,1.07-1.76-2.01.46-.17-2.05-1.36,1.55-1.35-1.56-.19,2.05-2.01-.47,1.06,1.77-1.9.8,1.89.81-1.07,1.76,2.01-.46.17,2.05,1.36-1.55,1.35,1.56.19-2.05,2.01.47-1.05-1.77,1.9-.8ZM15.75,14.71c-.3.87-1.24,1.34-2.11,1.04-.87-.29-1.34-1.24-1.04-2.11.29-.87,1.24-1.33,2.11-1.04.87.3,1.33,1.24,1.04,2.11ZM14.48,13.27c-.5-.17-1.04.1-1.21.6s.1,1.04.6,1.21c.5.17,1.04-.1,1.21-.6.17-.5-.1-1.04-.6-1.21ZM14.48,13.27c-.5-.17-1.04.1-1.21.6s.1,1.04.6,1.21c.5.17,1.04-.1,1.21-.6.17-.5-.1-1.04-.6-1.21ZM14.48,13.27c-.5-.17-1.04.1-1.21.6s.1,1.04.6,1.21c.5.17,1.04-.1,1.21-.6.17-.5-.1-1.04-.6-1.21ZM14.48,13.27c-.5-.17-1.04.1-1.21.6s.1,1.04.6,1.21c.5.17,1.04-.1,1.21-.6.17-.5-.1-1.04-.6-1.21ZM14.48,13.27c-.5-.17-1.04.1-1.21.6s.1,1.04.6,1.21c.5.17,1.04-.1,1.21-.6.17-.5-.1-1.04-.6-1.21ZM14.48,13.27c-.5-.17-1.04.1-1.21.6s.1,1.04.6,1.21c.5.17,1.04-.1,1.21-.6.17-.5-.1-1.04-.6-1.21ZM14.48,13.27c-.5-.17-1.04.1-1.21.6s.1,1.04.6,1.21c.5.17,1.04-.1,1.21-.6.17-.5-.1-1.04-.6-1.21Z"/>
    <g>
      <path class="cls-1" d="M15.08,14.48c-.17.5-.71.77-1.21.6-.5-.17-.77-.71-.6-1.21s.71-.77,1.21-.6c.5.17.77.71.6,1.21Z"/>
      <path class="cls-1" d="M18.55,14.19l-1.89-.81,1.07-1.76-2.01.46-.17-2.05-1.36,1.55-1.35-1.56-.19,2.05-2.01-.47,1.06,1.77-1.9.8,1.89.81-1.07,1.76,2.01-.46.17,2.05,1.36-1.55,1.35,1.56.19-2.05,2.01.47-1.05-1.77,1.9-.8ZM15.75,14.71c-.3.87-1.24,1.34-2.11,1.04-.87-.29-1.34-1.24-1.04-2.11.29-.87,1.24-1.33,2.11-1.04.87.3,1.33,1.24,1.04,2.11Z"/>
    </g>
    <g>
      <path class="cls-1" d="M15.08,14.48c-.17.5-.71.77-1.21.6-.5-.17-.77-.71-.6-1.21s.71-.77,1.21-.6c.5.17.77.71.6,1.21Z"/>
      <path class="cls-1" d="M18.55,14.19l-1.89-.81,1.07-1.76-2.01.46-.17-2.05-1.36,1.55-1.35-1.56-.19,2.05-2.01-.47,1.06,1.77-1.9.8,1.89.81-1.07,1.76,2.01-.46.17,2.05,1.36-1.55,1.35,1.56.19-2.05,2.01.47-1.05-1.77,1.9-.8ZM15.75,14.71c-.3.87-1.24,1.34-2.11,1.04-.87-.29-1.34-1.24-1.04-2.11.29-.87,1.24-1.33,2.11-1.04.87.3,1.33,1.24,1.04,2.11Z"/>
    </g>
    <path class="cls-1" d="M15.08,14.48c-.17.5-.71.77-1.21.6-.5-.17-.77-.71-.6-1.21s.71-.77,1.21-.6c.5.17.77.71.6,1.21Z"/>
    <path class="cls-1" d="M15.08,14.48c-.17.5-.71.77-1.21.6-.5-.17-.77-.71-.6-1.21s.71-.77,1.21-.6c.5.17.77.71.6,1.21Z"/>
  </g>
</svg>