<?xml version="1.0" encoding="UTF-8"?>
<svg id="_图层_1" data-name="图层 1" xmlns="http://www.w3.org/2000/svg" viewBox="0 0 28.35 28.35">
  <defs>
    <style>
      .cls-1 {
        fill: #54c2e4;
      }
    </style>
  </defs>
  <path class="cls-1" d="M14.7,6.89c.07.71.14,1.42.21,2.13.13,1.34.26,2.69.39,4.03,1.34.13,2.69.26,4.03.39h0c.71.07,1.42.14,2.13.21h0c1.8.17,3.6.35,5.41.52.43-4.66.87-9.33,1.3-13.99-4.66.43-9.33.87-13.99,1.3h0s0,.01,0,.02c.17,1.79.35,3.59.52,5.39ZM24.21,10.71c0,.1-.05.22-.17.36l-.05.05c-.46.43-1.82.97-5.79,1.19,4.34-2.61,5.47-2.42,5.82-2.12l.05.05h0c.1.13.15.31.14.47ZM25.56,2.26c.21-.06.42-.1.64-.14-.03.22-.08.43-.13.64-1.11,4.31-6.33,7.2-8.83,8.4,1.18-2.51,4.03-7.76,8.33-8.9ZM17.23,4.36l.05-.05c.14-.12.26-.16.36-.17.16-.02.33.04.45.14,0,0,.01.01.02.02l.04.04c.3.35.49,1.48-2.12,5.82.22-3.97.76-5.33,1.19-5.79Z"/>
  <path class="cls-1" d="M21.46,14.7c-.71.07-1.42.14-2.13.21-1.34.13-2.69.26-4.03.39-.13,1.34-.26,2.69-.39,4.03h0c-.07.71-.14,1.42-.21,2.13-.17,1.79-.35,3.59-.52,5.39,0,0,0,.01,0,.02h0c4.66.43,9.33.87,13.99,1.3-.43-4.66-.87-9.33-1.3-13.99-1.8.17-3.6.35-5.41.52ZM23.99,17.23l.05.05c.12.14.16.26.17.36.01.16-.04.33-.14.45,0,0,0,0,0,.01l-.05.05c-.35.3-1.47.49-5.82-2.12,3.97.22,5.33.76,5.79,1.19ZM18.16,24.01l-.04.04s-.01.01-.02.02c-.12.1-.3.15-.45.14-.1,0-.22-.05-.36-.17l-.05-.05c-.43-.46-.97-1.82-1.19-5.79,2.61,4.34,2.42,5.47,2.12,5.82ZM25.56,26.09c-4.3-1.14-7.15-6.39-8.33-8.9,2.51,1.2,7.72,4.09,8.83,8.4.05.21.1.42.13.64-.22-.04-.43-.08-.64-.14Z"/>
  <path class="cls-1" d="M13.65,21.46c-.07-.71-.14-1.42-.21-2.13-.13-1.34-.26-2.69-.39-4.03-1.34-.13-2.69-.26-4.03-.39h0c-.71-.07-1.42-.14-2.13-.21h0c-1.8-.17-3.6-.35-5.41-.52-.43,4.66-.87,9.33-1.3,13.99l13.99-1.3h0s0-.01,0-.02c-.17-1.79-.35-3.59-.52-5.39ZM4.14,17.64c0-.1.05-.22.17-.36l.05-.05c.46-.43,1.82-.97,5.79-1.19-4.34,2.61-5.47,2.42-5.82,2.12l-.05-.05s0,0,0-.01c-.1-.12-.15-.3-.14-.45ZM2.79,26.09c-.21.05-.42.1-.64.14.03-.22.08-.43.13-.64,1.11-4.31,6.33-7.2,8.83-8.4-1.18,2.51-4.03,7.76-8.33,8.9ZM10.71,24.21c-.16.01-.33-.04-.45-.14,0,0,0,0-.01,0l-.06-.06c-.3-.35-.47-1.49,2.13-5.81-.3,5.4-1.18,5.97-1.6,6.02Z"/>
  <path class="cls-1" d="M9.02,13.44c1.34-.13,2.69-.26,4.03-.39.13-1.34.26-2.69.39-4.03h0c.07-.71.14-1.42.21-2.13.17-1.79.35-3.59.52-5.39,0,0,0-.01,0-.02h0C9.51,1.05,4.85.62.18.18c.43,4.66.87,9.33,1.3,13.99,1.8-.18,3.6-.35,5.41-.52.71-.07,1.42-.14,2.13-.21ZM10.19,4.34l.06-.06s0,0,.01,0c.12-.1.3-.15.45-.14.1,0,.22.05.36.17l.05.05c.44.46.97,1.82,1.19,5.79-2.6-4.32-2.42-5.46-2.13-5.81ZM2.15,2.12c.22.04.43.08.64.14,4.3,1.14,7.15,6.39,8.33,8.9-2.51-1.2-7.72-4.09-8.83-8.4-.05-.21-.1-.42-.13-.64ZM4.31,11.07c-.12-.14-.16-.26-.17-.36-.01-.16.04-.33.14-.45,0,0,0,0,0-.01l.05-.05c.35-.3,1.47-.49,5.82,2.12-3.97-.22-5.33-.76-5.79-1.19l-.05-.05Z"/>
</svg>