<?xml version="1.0" encoding="UTF-8"?>
<svg id="_图层_1" data-name="图层 1" xmlns="http://www.w3.org/2000/svg" viewBox="0 0 28.35 28.35">
  <defs>
    <style>
      .cls-1 {
        fill: #e84a89;
      }
    </style>
  </defs>
  <path class="cls-1" d="M26.14,2.23h-.01c-1.37-1.38-3.27-2.23-5.36-2.23H7.58c-2.09,0-3.98.85-5.36,2.22h0s0,0,0,0h0C.84,3.61,0,5.5,0,7.59v13.18C0,22.85.84,24.74,2.21,26.12h.01s0,.02,0,.02c0,0,0,0,0,0,1.37,1.37,3.26,2.21,5.35,2.21h13.18c2.09,0,3.98-.84,5.35-2.21,0,0,0,0,0,0h0s0,0,0,0c1.37-1.37,2.22-3.27,2.22-5.36V7.59c0-2.09-.84-3.98-2.21-5.36ZM14.17.45c2.36,0,4.04,1,4.65,1.41-.48.11-2.09.52-3.33,2.06-1.18,1.46-1.3,3.03-1.32,3.54-.02-.51-.13-2.08-1.32-3.54-1.24-1.54-2.85-1.95-3.33-2.06.61-.41,2.29-1.41,4.65-1.41ZM1.86,18.83c-.41-.61-1.41-2.29-1.41-4.65s1-4.04,1.41-4.65c.11.48.52,2.09,2.06,3.33,1.46,1.18,3.04,1.3,3.54,1.32-.5.02-2.08.13-3.54,1.32-1.54,1.24-1.95,2.85-2.06,3.33ZM14.17,27.9c-2.36,0-4.04-1-4.65-1.41.48-.11,2.09-.52,3.33-2.06,1.18-1.46,1.3-3.04,1.32-3.54.02.5.13,2.08,1.32,3.54,1.24,1.53,2.85,1.95,3.33,2.06-.61.41-2.29,1.41-4.65,1.41ZM17.22,23.08c-2.61-2.61-3.02-6.14-3.05-8.16-.02,2.02-.44,5.55-3.05,8.16-2.94,2.94-7.05,3.1-8.86,3.04,1.29-.5,4.24-1.8,7.16-4.72,2.96-2.96,4.26-5.95,4.74-7.21,0,0,0,0,0-.02,0,0-.01,0-.02,0-1.27.48-4.25,1.78-7.21,4.74-2.92,2.92-4.22,5.86-4.72,7.16-.05-1.81.1-5.91,3.05-8.85,2.56-2.56,6.01-3.01,8.05-3.05-2.04-.04-5.49-.49-8.05-3.05-2.94-2.94-3.1-7.05-3.05-8.85.5,1.29,1.8,4.24,4.72,7.16,2.96,2.96,5.95,4.26,7.21,4.74,0,0,0,0,.02,0,0,0,0,0,0-.02-.48-1.26-1.78-4.25-4.74-7.21C6.5,4.03,3.56,2.73,2.27,2.23c1.81-.05,5.91.1,8.86,3.04,2.61,2.61,3.02,6.14,3.05,8.16.02-2.02.44-5.55,3.05-8.16,2.94-2.94,7.05-3.1,8.86-3.04-1.29.5-4.24,1.8-7.16,4.72-2.96,2.96-4.26,5.95-4.74,7.21,0,0,0,0,0,.02,0,0,0,0,.02,0,1.26-.48,4.25-1.78,7.21-4.74,2.92-2.92,4.22-5.86,4.72-7.16.05,1.81-.1,5.91-3.05,8.85-2.54,2.55-5.96,3.01-8,3.05,2.04.04,5.46.5,8,3.05,2.94,2.94,3.1,7.05,3.05,8.85-.5-1.29-1.8-4.24-4.72-7.16-2.96-2.96-5.94-4.26-7.21-4.74,0,0-.01,0-.02,0,0,0,0,0,0,.02.48,1.26,1.78,4.25,4.74,7.21s5.86,4.22,7.16,4.72c-1.81.05-5.91-.1-8.86-3.04ZM26.49,18.83c-.11-.48-.53-2.09-2.06-3.33-1.46-1.18-3.03-1.3-3.54-1.32.51-.02,2.08-.13,3.54-1.32,1.54-1.24,1.95-2.85,2.06-3.33.41.61,1.41,2.29,1.41,4.65s-1,4.04-1.41,4.65Z"/>
</svg>