<?xml version="1.0" encoding="UTF-8"?>
<svg id="_图层_1" data-name="图层 1" xmlns="http://www.w3.org/2000/svg" viewBox="0 0 28.35 28.35">
  <defs>
    <style>
      .cls-1 {
        fill: #f18a24;
      }
    </style>
  </defs>
  <path class="cls-1" d="M27.26,25.77v-.66c-5.11-1.52-9.61-1.92-13.09-1.92-5.24,0-9.7.91-13.09,1.92v.66c.29,0,.53.25.53.55s-.24.56-.53.56v1.39c.62-.83,1.25-1.67,1.87-2.5.62.83,1.25,1.66,1.87,2.5.62-.83,1.25-1.67,1.87-2.5.62.83,1.25,1.66,1.87,2.5.62-.83,1.25-1.67,1.87-2.5.62.83,1.25,1.66,1.87,2.5.62-.83,1.25-1.67,1.87-2.5.62.83,1.25,1.66,1.87,2.5.62-.83,1.25-1.67,1.87-2.5.62.83,1.25,1.66,1.87,2.5.62-.83,1.25-1.67,1.87-2.5.62.83,1.25,1.66,1.87,2.5.62-.83,1.25-1.67,1.87-2.5.62.83,1.25,1.66,1.87,2.5v-1.39c-.3,0-.54-.25-.54-.56s.24-.55.54-.55ZM4.82,26.88c-.3,0-.54-.25-.54-.56s.24-.55.54-.55.53.25.53.55-.24.56-.53.56ZM8.56,26.88c-.3,0-.54-.25-.54-.56s.24-.55.54-.55.53.25.53.55-.24.56-.53.56ZM12.3,26.88c-.3,0-.54-.25-.54-.56s.24-.55.54-.55.53.25.53.55-.24.56-.53.56ZM16.04,26.88c-.3,0-.54-.25-.54-.56s.24-.55.54-.55.53.25.53.55-.24.56-.53.56ZM19.78,26.88c-.3,0-.54-.25-.54-.56s.24-.55.54-.55.53.25.53.55-.24.56-.53.56ZM23.52,26.88c-.3,0-.54-.25-.54-.56s.24-.55.54-.55.53.25.53.55-.24.56-.53.56ZM25.39,27c-.62.42-1.25.84-1.87,1.26-.62-.42-1.25-.84-1.87-1.26-.62.42-1.25.84-1.87,1.26-.62-.42-1.25-.84-1.87-1.26-.62.42-1.25.84-1.87,1.26-.62-.42-1.25-.84-1.87-1.26-.62.42-1.25.84-1.87,1.26-.62-.42-1.25-.84-1.87-1.26-.62.42-1.25.84-1.87,1.26-.62-.42-1.25-.84-1.87-1.26-.62.42-1.25.84-1.87,1.26-.62-.42-1.25-.84-1.87-1.26-.62.42-1.25.84-1.87,1.26v.09h26.18v-.09c-.62-.42-1.25-.84-1.87-1.26Z"/>
  <path class="cls-1" d="M14.18,17.23c-3.13,0-5.71,2.67-5.71,5.91,1.68-.26,3.67-.45,5.89-.44,2.07,0,3.94.19,5.54.44,0-3.24-2.58-5.91-5.71-5.91ZM11.2,21.87c-.08-.1-.78-1.04-.47-2.17.28-1.01,1.27-1.75,2.42-1.74-.12.04-1.56.47-2.02,1.92-.3.93-.02,1.74.08,1.99ZM12.35,20.7c-.23-1.03.29-2.17,1.3-2.73-.09.09-1.14,1.19-.87,2.69.18.96.8,1.53,1,1.7-.11-.05-1.17-.52-1.43-1.66ZM14.17,20.74c-.3,0-.54-.25-.54-.56s.24-.55.54-.55.53.25.53.55-.24.56-.53.56ZM16,20.7c-.26,1.14-1.32,1.61-1.43,1.66.2-.17.82-.74,1-1.7.28-1.5-.77-2.6-.87-2.69,1.01.57,1.53,1.7,1.3,2.73ZM17.16,21.87c.1-.25.37-1.06.08-1.99-.46-1.45-1.9-1.88-2.02-1.92,1.15-.01,2.14.72,2.42,1.74.31,1.13-.4,2.07-.47,2.17Z"/>
  <path class="cls-1" d="M27.27,1.47V.09c-.62.83-1.25,1.66-1.87,2.5-.62-.83-1.25-1.66-1.87-2.5-.62.83-1.25,1.66-1.87,2.5-.62-.83-1.25-1.66-1.87-2.5-.62.83-1.25,1.66-1.87,2.5-.62-.83-1.25-1.66-1.87-2.5-.62.83-1.25,1.66-1.87,2.5-.62-.83-1.25-1.66-1.87-2.5-.62.83-1.25,1.66-1.87,2.5-.62-.83-1.25-1.66-1.87-2.5-.62.83-1.25,1.66-1.87,2.5-.62-.83-1.25-1.66-1.87-2.5-.62.83-1.25,1.66-1.87,2.5C2.34,1.75,1.71.92,1.09.09v1.39c.29,0,.54.25.54.56s-.24.55-.54.55v.66c3.39,1.01,7.84,1.92,13.09,1.92,3.48,0,7.99-.4,13.09-1.92v-.66c-.3,0-.54-.25-.54-.55s.24-.56.54-.56ZM4.83,2.58c-.3,0-.54-.25-.54-.55s.24-.56.54-.56.54.25.54.56-.24.55-.54.55ZM8.57,2.58c-.3,0-.54-.25-.54-.55s.24-.56.54-.56.54.25.54.56-.24.55-.54.55ZM12.31,2.58c-.3,0-.54-.25-.54-.55s.24-.56.54-.56.54.25.54.56-.24.55-.54.55ZM16.05,2.58c-.3,0-.54-.25-.54-.55s.24-.56.54-.56.54.25.54.56-.24.55-.54.55ZM19.79,2.58c-.3,0-.54-.25-.54-.55s.24-.56.54-.56.54.25.54.56-.24.55-.54.55ZM23.53,2.58c-.3,0-.54-.25-.54-.55s.24-.56.54-.56.54.25.54.56-.24.55-.54.55ZM1.09,0v.09c.62.42,1.25.84,1.87,1.26.62-.42,1.25-.84,1.87-1.26.62.42,1.25.84,1.87,1.26.62-.42,1.25-.84,1.87-1.26.62.42,1.25.84,1.87,1.26.62-.42,1.25-.84,1.87-1.26.62.42,1.25.84,1.87,1.26.62-.42,1.25-.84,1.87-1.26.62.42,1.25.84,1.87,1.26.62-.42,1.25-.84,1.87-1.26.62.42,1.25.84,1.87,1.26.62-.42,1.25-.84,1.87-1.26.62.42,1.25.84,1.87,1.26.62-.42,1.25-.84,1.87-1.26v-.09H1.09Z"/>
  <path class="cls-1" d="M14.36,5.65c-2.22,0-4.2-.18-5.89-.44,0,3.24,2.58,5.91,5.71,5.91s5.71-2.67,5.71-5.91c-1.6.25-3.46.43-5.54.44ZM10.73,8.65c-.31-1.13.4-2.07.47-2.17-.1.25-.37,1.06-.08,1.99.46,1.45,1.9,1.88,2.02,1.92-1.15.01-2.14-.72-2.42-1.74ZM12.36,7.65c.26-1.14,1.32-1.61,1.43-1.66-.2.17-.82.74-1,1.7-.28,1.5.77,2.6.87,2.69-1.01-.57-1.53-1.7-1.3-2.73ZM14.18,8.72c-.3,0-.54-.25-.54-.56s.24-.55.54-.55.54.25.54.55-.24.56-.54.56ZM15.58,7.69c-.18-.96-.8-1.53-1-1.7.11.05,1.17.52,1.43,1.66.23,1.03-.29,2.17-1.3,2.73.09-.09,1.14-1.19.87-2.69ZM17.64,8.65c-.28,1.02-1.27,1.75-2.42,1.74.12-.04,1.56-.47,2.02-1.92.3-.93.02-1.74-.08-1.99.08.1.78,1.04.47,2.17Z"/>
  <path class="cls-1" d="M14.95,14.2c0-1.27.68-2.44,1.76-3.04-.61.22-1.49.44-2.55.44s-1.94-.22-2.55-.44c1.08.6,1.76,1.77,1.76,3.04s-.68,2.44-1.76,3.04c.57-.23,1.45-.5,2.55-.5s1.97.27,2.55.5c-1.08-.6-1.76-1.77-1.76-3.04Z"/>
</svg>