<?xml version="1.0" encoding="UTF-8"?>
<svg id="_图层_1" data-name="图层 1" xmlns="http://www.w3.org/2000/svg" viewBox="0 0 28.35 28.35">
  <defs>
    <style>
      .cls-1 {
        fill: #6dc19b;
      }
    </style>
  </defs>
  <path class="cls-1" d="M27.87,3.64c-.3.3-.71.48-1.16.48h-10.88c-.06,0-.11,0-.17,0h0c-.26.26-.59.44-.95.54v19.36c.19,1.02.51,2.13.24,3.15-.16.59-.47.91-.79.93-.32-.02-.63-.34-.79-.93-.27-1.03.05-2.14.24-3.15v-6.92s0-12.42,0-12.42c-.02,0-.04,0-.07-.02-.38-.1-.71-.28-.99-.54H1.64c-.9,0-1.64-.74-1.64-1.64,0-.45.19-.86.48-1.16.3-.3.71-.48,1.16-.48h10.92c.4-.38.95-.61,1.54-.61s1.15.24,1.55.62h0c.05,0,.11,0,.17,0h10.88c.9,0,1.64.74,1.64,1.64,0,.45-.19.86-.48,1.16ZM14.11.93c-.25,0-.49.06-.71.17-.14.07-.27.16-.38.27.16.01.49.07.76.34.22.22.3.5.33.67,0-.05.02-.11.04-.17h0c.03-.11.08-.22.16-.34t0,0c.04-.06.08-.11.13-.16.27-.27.61-.32.77-.34-.09-.09-.2-.17-.31-.24-.23-.13-.49-.21-.78-.21ZM13.4,3.87c.21.11.45.17.71.17.28,0,.55-.08.78-.21h0c.11-.07.22-.15.31-.24-.16-.01-.49-.07-.76-.34-.06-.06-.1-.12-.14-.18-.08-.12-.12-.24-.15-.34t0,0c-.02-.07-.03-.14-.04-.19-.02.17-.09.48-.33.72-.26.26-.59.32-.75.34.11.11.24.2.38.27ZM13,3.57c.02-.16.07-.49.34-.75.25-.25.55-.31.72-.33-.17-.02-.47-.09-.71-.33-.26-.26-.32-.6-.34-.76-.28.28-.45.67-.45,1.09s.17.8.44,1.08ZM14.88,2.16c-.22.22-.49.3-.67.32.18.03.45.1.67.33.27.27.32.6.34.76.27-.28.44-.66.44-1.09s-.17-.81-.45-1.09c-.02.16-.07.5-.34.77ZM14.15,27.54h.02s.42-.34.41-.86c0-.5-.37-.79-.42-.83.07-.06.35-.36.37-.82.02-.52-.31-.86-.37-.91-.06.05-.39.39-.37.91.02.47.3.76.37.82-.05.04-.41.33-.42.83,0,.52.36.82.41.86ZM14.05,23.73h.23v-6.62h0V4.73s-.04,0-.07,0c-.03,0-.07,0-.1,0-.02,0-.04,0-.06,0v12.37h0v6.62ZM10.1,1.41c-.94,0-1.62.74-1.89,1.09-.28-.35-.96-1.09-1.89-1.09s-1.62.74-1.89,1.09c-.28-.35-.96-1.09-1.9-1.09s-1.62.75-1.9,1.09c.27.34.95,1.09,1.9,1.09s1.62-.74,1.9-1.09c.27.34.95,1.09,1.89,1.09s1.62-.74,1.89-1.09c.28.34.95,1.09,1.89,1.09.81,0,1.43-.56,1.76-.93.05-.06.1-.11.13-.16-.04-.05-.08-.1-.14-.16-.33-.37-.95-.93-1.76-.93ZM25.69,1.41c-.94,0-1.62.75-1.89,1.09-.27-.34-.95-1.09-1.9-1.09s-1.62.74-1.89,1.09c-.27-.35-.95-1.09-1.89-1.09-.81,0-1.43.56-1.76.93h0c-.05.06-.1.12-.14.17.04.05.08.1.13.16.33.37.95.93,1.76.93.94,0,1.62-.74,1.89-1.09.27.34.95,1.09,1.89,1.09s1.62-.75,1.9-1.09c.27.34.95,1.09,1.89,1.09s1.62-.75,1.9-1.09c-.27-.34-.95-1.09-1.9-1.09Z"/>
  <path class="cls-1" d="M2.53,3.25c-.64,0-1.11-.51-1.3-.75.19-.24.65-.75,1.3-.75s1.11.51,1.3.75c-.19.24-.65.75-1.3.75Z"/>
  <polygon class="cls-1" points="4.42 2.51 4.41 2.5 4.42 2.5 4.42 2.5 4.42 2.51"/>
  <path class="cls-1" d="M6.32,3.25c-.65,0-1.11-.51-1.3-.75.19-.24.65-.75,1.3-.75s1.11.51,1.3.75c-.19.24-.65.75-1.3.75Z"/>
  <polygon class="cls-1" points="8.21 2.51 8.2 2.5 8.21 2.5 8.21 2.5 8.21 2.51"/>
  <path class="cls-1" d="M10.1,3.25c-.64,0-1.11-.51-1.3-.75.19-.24.65-.75,1.3-.75s1.11.51,1.3.75c-.19.24-.65.75-1.3.75Z"/>
  <path class="cls-1" d="M25.68,3.25c-.65,0-1.11-.51-1.3-.75.19-.24.65-.75,1.3-.75s1.11.51,1.3.75c-.19.24-.65.75-1.3.75Z"/>
  <rect class="cls-1" x="23.8" y="2.5" width="0" height="0" transform="translate(5.13 17.47) rotate(-44.72)"/>
  <path class="cls-1" d="M21.9,3.25c-.64,0-1.11-.51-1.3-.75.19-.24.65-.75,1.3-.75s1.11.51,1.3.75c-.19.24-.65.75-1.3.75Z"/>
  <polygon class="cls-1" points="20.01 2.51 20.01 2.5 20.01 2.5 20.01 2.5 20.01 2.51"/>
  <path class="cls-1" d="M18.11,3.25c-.64,0-1.11-.51-1.3-.75.19-.24.65-.75,1.3-.75s1.11.51,1.3.75c-.19.24-.65.75-1.3.75Z"/>
</svg>