<?xml version="1.0" encoding="UTF-8"?>
<svg id="_图层_1" data-name="图层 1" xmlns="http://www.w3.org/2000/svg" viewBox="0 0 28.35 34.29">
  <defs>
    <style>
      .cls-1 {
        fill: #54c2e4;
      }
    </style>
  </defs>
  <path class="cls-1" d="M28.17,4.24c-1.04.35-2.43.77-4.1,1.15-4.24.97-7.78,1.11-9.84,1.11s-5.6-.14-9.84-1.11c-1.67-.38-3.06-.8-4.09-1.15-.1.41-.2.96-.18,1.6.01.53.09.99.18,1.35,1.3.59,3.1,1.29,5.32,1.85,3.81.96,6.86.98,8.56.99,1.71,0,4.81-.01,8.67-.99,2.21-.56,4.01-1.26,5.32-1.85.09-.36.17-.82.18-1.35.01-.64-.08-1.19-.18-1.6ZM1.51,6.47c-.11.11-.25.17-.4.17-.04,0-.07,0-.11-.01-.04,0-.07-.02-.11-.03-.03-.01-.07-.03-.1-.05-.03-.02-.06-.04-.09-.07-.03-.03-.05-.06-.07-.09-.02-.03-.04-.06-.05-.1-.01-.03-.03-.07-.03-.11,0-.04-.01-.07-.01-.11,0-.15.06-.3.17-.4.03-.03.06-.05.09-.07.03-.02.06-.04.1-.05.04-.01.07-.03.11-.03.19-.04.38.02.52.16.11.11.17.25.17.4s-.06.3-.17.41ZM3.61,6.86c-.04.12-.11.23-.21.3-.1.07-.22.11-.34.11-.05,0-.11,0-.16-.02-.3-.09-.47-.41-.39-.71.07-.25.3-.41.55-.41.06,0,.11,0,.16.02.25.07.41.3.41.55,0,.05,0,.11-.02.16ZM5.6,7.37c-.03.13-.1.24-.2.32-.1.08-.22.12-.35.12-.04,0-.09,0-.13-.02-.31-.07-.5-.38-.42-.69.06-.26.3-.44.55-.44.04,0,.09,0,.13.02.26.06.44.3.44.55,0,.04,0,.09-.02.13ZM7.63,7.76c-.03.14-.1.25-.2.34-.1.08-.23.13-.36.13-.03,0-.07,0-.1,0-.31-.06-.52-.36-.46-.67.05-.27.29-.47.56-.47.04,0,.07,0,.1,0,.28.05.47.29.47.56,0,.04,0,.07,0,.1ZM9.66,8.05c-.02.14-.09.27-.19.36-.1.09-.23.14-.37.14-.02,0-.05,0-.08,0-.31-.04-.53-.33-.49-.64.04-.29.28-.5.56-.5.02,0,.05,0,.08,0,.29.04.5.28.5.57,0,.02,0,.05,0,.07ZM11.72,8.24c-.01.15-.08.28-.18.37-.1.09-.24.15-.39.15-.01,0-.03,0-.04,0-.31-.02-.55-.3-.53-.61.02-.3.28-.53.57-.53.01,0,.03,0,.04,0,.3.02.53.28.53.57,0,.01,0,.03,0,.04ZM13.77,8.32c0,.16-.07.3-.17.39-.1.1-.24.16-.4.16h-.02c-.31,0-.56-.27-.56-.59,0-.31.26-.56.57-.56h.01c.31,0,.56.26.56.57v.02ZM15.83,8.3c0,.31-.25.56-.56.57h-.02c-.15,0-.29-.06-.4-.16-.1-.1-.17-.24-.17-.39,0-.32.24-.58.56-.59h.01c.31,0,.56.25.57.56h0ZM17.36,8.76s-.03,0-.05,0c-.15,0-.28-.06-.39-.15-.1-.09-.17-.23-.18-.38-.02-.31.21-.59.53-.61.02,0,.03,0,.05,0,.29,0,.55.23.57.53,0,.02,0,.03,0,.05,0,.3-.23.55-.53.57ZM19.44,8.55s-.05,0-.07,0c-.14,0-.27-.05-.37-.14-.1-.09-.17-.21-.19-.36-.04-.31.18-.6.49-.64.02,0,.05,0,.07,0,.28,0,.53.21.57.5,0,.02,0,.05,0,.07,0,.28-.21.53-.5.57ZM21.5,8.22s-.07.01-.1.01c-.14,0-.26-.05-.36-.13-.1-.08-.17-.2-.2-.34-.06-.31.15-.61.46-.67.04,0,.07,0,.1,0,.27,0,.51.19.56.47,0,.04,0,.07,0,.1,0,.27-.19.51-.47.56ZM23.55,7.79s-.09.02-.13.02c-.13,0-.25-.04-.35-.12-.1-.08-.17-.19-.2-.32-.07-.31.12-.61.42-.69.04-.01.09-.02.13-.02.26,0,.49.18.55.44.01.04.02.09.02.13,0,.26-.18.49-.44.55ZM25.57,7.25c-.05.02-.11.02-.16.02-.12,0-.24-.04-.34-.11-.1-.07-.17-.17-.21-.3-.09-.3.08-.62.39-.71.05-.02.11-.02.16-.02.25,0,.48.16.55.41.02.05.02.11.02.16,0,.25-.16.47-.41.55ZM27.77,6.47c-.11.11-.25.17-.4.17s-.3-.06-.4-.17c-.11-.1-.17-.25-.17-.4s.06-.3.17-.4c.11-.11.25-.17.4-.17s.3.06.4.17c.11.11.17.25.17.4s-.06.3-.17.4Z"/>
  <path class="cls-1" d="M14.24,5.8c6.52,0,13.73-1.65,13.69-3.03-.04-1.41-7.73-2.5-13.69-2.5S.58,1.37.54,2.77c-.04,1.37,7.17,3.03,13.7,3.03ZM14.24,1.17c5.03,0,11.51.66,11.55,1.52.03.83-6.05,1.83-11.55,1.83-5.5,0-11.58-1-11.55-1.83.03-.85,6.52-1.52,11.55-1.52Z"/>
  <path class="cls-1" d="M14.27,3.7c4.11,0,8.67-.53,8.64-.97-.02-.45-4.88-.81-8.64-.81s-8.62.35-8.64.81c-.02.44,4.53.98,8.64.97Z"/>
  <path class="cls-1" d="M14.4,24.1c-.06.04-.11.08-.16.12h0s0,0,0,0c-.05-.04-.1-.08-.16-.12-1.51-1.11-3.87-2.58-7.07-3.59-1.85-.58-3.56-.89-5.04-1.03,0,0,0,0,0,.01.95,2.06,2.29,3.19,3.7,4.58.71.69,1.69,1.7,2.81,3.01.9.3,2.02.6,3.33.77.78.1,1.58.15,2.37.15h.1c.79,0,1.59-.04,2.37-.15,1.31-.17,2.43-.47,3.33-.77,1.12-1.31,2.1-2.32,2.81-3.01,1.42-1.39,2.75-2.52,3.7-4.58,0,0,0-.01,0-.01-1.48.15-3.19.45-5.04,1.03-3.2,1.01-5.56,2.48-7.07,3.59ZM4.48,20.9c-.08.27-.34.44-.62.44h-.02c-.05,0-.1,0-.15-.02-.34-.09-.55-.42-.45-.74.08-.27.34-.44.62-.44.06,0,.11,0,.17.02.29.07.48.32.48.58,0,.05,0,.1-.02.16ZM6.71,21.61c-.09.24-.34.4-.6.4h-.02c-.07,0-.13-.01-.2-.04-.33-.11-.5-.46-.38-.77.09-.24.34-.4.6-.4.07,0,.15.01.22.04.26.09.43.32.43.56,0,.07-.01.14-.04.21ZM8.87,22.49c-.11.22-.34.35-.58.35h-.02c-.08,0-.17-.02-.25-.06-.32-.14-.47-.49-.32-.8.11-.22.34-.35.59-.35.09,0,.18.02.26.06.23.1.38.32.38.55,0,.08-.02.17-.06.25ZM10.94,23.54c-.12.2-.34.31-.56.31h-.02c-.1,0-.2-.02-.3-.08-.31-.16-.42-.53-.25-.82.12-.2.34-.31.56-.31.11,0,.22.03.32.08.21.11.33.31.33.53,0,.1-.03.2-.08.29ZM12.92,24.74c-.12.17-.33.27-.53.27h-.02c-.12,0-.24-.04-.34-.1-.29-.18-.37-.56-.17-.84.12-.17.33-.27.53-.27.12,0,.25.03.36.1.18.12.28.31.28.5,0,.12-.04.23-.11.33ZM14.6,26.18c-.11.08-.23.13-.36.13h0c-.13,0-.25-.05-.36-.13-.28-.21-.32-.58-.1-.84.12-.14.28-.21.46-.22h0c.17,0,.34.09.46.22.22.26.18.64-.1.84ZM16.45,24.9c-.1.07-.23.1-.34.1h-.02c-.2,0-.41-.09-.53-.27-.07-.1-.11-.22-.11-.33,0-.19.1-.38.28-.5.11-.07.23-.1.36-.1.21,0,.41.09.53.27.2.27.12.65-.17.84ZM18.41,23.76c-.09.05-.2.08-.3.08h-.02c-.23,0-.44-.11-.56-.31-.06-.09-.08-.2-.08-.29,0-.21.12-.42.33-.53.1-.05.21-.08.31-.08.22,0,.44.11.56.31.17.29.06.66-.25.82ZM20.46,22.79c-.08.04-.17.05-.25.06h-.02c-.24,0-.48-.13-.58-.35-.04-.08-.06-.17-.06-.25,0-.23.14-.45.38-.55.09-.04.18-.06.26-.06.24,0,.48.13.59.35.15.3,0,.66-.32.8ZM24.45,20.16c.06-.01.11-.02.17-.02.28,0,.54.18.62.44.09.32-.11.65-.45.74-.05.01-.1.02-.15.02h-.02c-.28,0-.54-.18-.62-.44-.01-.05-.02-.1-.02-.16,0-.26.19-.51.48-.58ZM22.15,20.84c.07-.02.15-.04.22-.04.26,0,.51.15.6.4.12.31-.05.66-.38.77-.07.02-.14.03-.2.04h-.02c-.26,0-.51-.15-.6-.4-.03-.07-.04-.14-.04-.21,0-.25.16-.47.43-.56Z"/>
  <path class="cls-1" d="M14.45,28.7h-.18c-.93,0-1.86-.06-2.78-.18-.87-.11-1.74-.28-2.59-.5.59.77,1,1.43,1.27,1.91.12.22.23.43.34.64.36.07.72.13,1.08.17.91.12,1.84.18,2.76.17h0s0,0,0,0,0,0,0,0h0c.92,0,1.85-.05,2.76-.17.36-.05.72-.1,1.08-.17.1-.2.21-.42.34-.64.27-.48.68-1.14,1.27-1.91-.85.22-1.72.39-2.59.5-.91.12-1.85.18-2.78.18Z"/>
  <path class="cls-1" d="M14.53,31.6s-.06,0-.09,0h0s-.06,0-.09,0c-.97,0-1.95-.06-2.9-.16-.21-.02-.43-.05-.64-.08.56,1.04.9,1.79,1.88,2.36.66.38,1.34.52,1.76.57h0s0,0,0,0c0,0,0,0,0,0h0c.42-.06,1.1-.2,1.76-.57.99-.56,1.32-1.31,1.88-2.36-.21.03-.43.06-.64.08-.96.11-1.93.16-2.9.16Z"/>
  <path class="cls-1" d="M14.24,21.26h0c-1.2-.78-2.47-1.46-3.79-2.03-2.96-1.29-6.15-2.03-9.49-2.22.05.16.11.33.17.49,0,.03.02.05.03.07.05.13.1.26.15.4,1.69.12,3.72.42,5.93,1.09,3.09.94,5.43,2.26,6.97,3.3l.02.02h0s0,0,0,0h0s0,0,0,0l.02-.02c1.54-1.04,3.88-2.36,6.97-3.3,2.21-.67,4.24-.97,5.93-1.09.05-.13.1-.27.15-.4.01-.03.02-.05.03-.07.06-.17.12-.33.17-.49-3.34.19-6.53.93-9.49,2.22-1.31.57-2.59,1.25-3.79,2.03Z"/>
  <path class="cls-1" d="M23.24,9.6c-1.95.46-4.95,1.15-8.92,1.16h-.19c-3.96,0-6.96-.7-8.91-1.16-2.04-.48-3.72-1.04-4.98-1.49.57,3.32.55,4.83.41,5.59-.05.24-.25,1.21.02,2.4.05.22.11.4.14.51,3.44.18,6.73.94,9.79,2.27,1.25.54,2.46,1.18,3.61,1.91h0s0,0,0,0c1.15-.72,2.36-1.37,3.61-1.91,3.05-1.33,6.35-2.09,9.79-2.27.04-.11.09-.29.15-.51.27-1.19.07-2.15.02-2.4-.14-.76-.15-2.27.41-5.59-1.25.46-2.94,1.01-4.98,1.49ZM3.37,13.07c-1.07-.59-2.15-.47-2.42-1.19-.14-.39-.01-.9.29-1.11.58-.39,1.68.41,1.97.62,1.55,1.12,2.03,3.05,2.2,4.22-.6-1.5-1.39-2.19-2.03-2.54ZM6.29,14.37c-.18-.33-.89-1.6-.33-2.11.29-.26.91-.29,1.33-.07.78.42.43,1.49.89,2.68.28.72.92,1.65,2.52,2.55-1.31-.4-3.43-1.27-4.41-3.06ZM9.53,14.07c0-.18.06-.37.29-.52.23-.14.45-.12.62-.05.9.34,2.06,2.34,2.89,5-2.29-1.75-3.81-3.52-3.8-4.43ZM14.24,18.76c-.87-2.64-1.09-4.9-.55-5.65.1-.15.27-.28.55-.28h0c.27,0,.44.14.55.28.54.75.33,3.01-.55,5.65ZM15.14,18.5c.83-2.66,2-4.66,2.89-5,.17-.07.39-.09.62.05.23.15.29.34.29.52,0,.91-1.51,2.68-3.8,4.43ZM22.19,14.37c-.98,1.78-3.1,2.66-4.42,3.06,1.6-.9,2.24-1.84,2.52-2.55.47-1.2.12-2.26.89-2.68.42-.22,1.04-.19,1.33.07.56.5-.14,1.78-.33,2.11ZM27.53,11.88c-.27.73-1.35.61-2.42,1.19-.64.35-1.43,1.04-2.03,2.54.17-1.17.66-3.1,2.2-4.22.29-.21,1.39-1.01,1.97-.62.3.2.43.72.28,1.11Z"/>
</svg>