<?xml version="1.0" encoding="UTF-8"?>
<svg id="_图层_1" data-name="图层 1" xmlns="http://www.w3.org/2000/svg" viewBox="0 0 35.39 51.84">
  <defs>
    <style>
      .cls-1 {
        fill: #f18a24;
      }
    </style>
  </defs>
  <rect class="cls-1" x="16.27" y="32.43" width="2.74" height="1.43"/>
  <polygon class="cls-1" points="16.27 44.62 17.54 43.71 17.23 42.1 17.6 41.05 17.97 42.1 17.66 43.71 18.95 44.63 18.04 44.48 17.6 46.06 17.16 44.48 16.27 44.63 16.27 47.54 17.16 47.69 17.6 46.11 18.04 47.69 18.95 47.54 17.66 48.46 17.97 50.08 17.6 51.12 17.23 50.08 17.54 48.46 16.27 47.56 16.27 51.85 19.02 51.85 19.02 34.52 16.27 34.52 16.27 44.62"/>
  <path class="cls-1" d="M17.78,5.12c-5.05,0-9.16,4.11-9.16,9.16s4.11,9.16,9.16,9.16,9.16-4.11,9.16-9.16-4.11-9.16-9.16-9.16ZM23.1,8.72c.34-.29.85-.25,1.14.1.29.34.25.85-.1,1.14-.25.21-.59.25-.87.11.15.03.32,0,.45-.11.23-.19.25-.53.06-.75-.19-.23-.53-.25-.75-.06-.13.11-.19.27-.19.42-.08-.3,0-.63.25-.84ZM19.25,6.72c.13-.43.58-.67,1.01-.54.43.13.67.58.54,1.01-.1.31-.37.53-.67.57.15-.06.27-.18.31-.34.09-.28-.07-.58-.35-.67-.28-.09-.58.07-.67.35-.05.16-.02.33.07.46-.23-.2-.34-.53-.24-.85ZM15.49,6.13c.43-.12.88.13,1,.56.09.32-.02.64-.26.84.09-.13.13-.29.08-.46-.08-.29-.37-.45-.66-.37-.29.08-.45.38-.37.66.04.16.16.28.31.35-.31-.05-.57-.27-.66-.58-.12-.43.13-.88.56-1ZM17.78,8.05c3.44,0,6.23,2.8,6.23,6.23s-2.8,6.23-6.23,6.23-6.23-2.8-6.23-6.23,2.8-6.23,6.23-6.23ZM11.44,8.66c.3-.33.81-.37,1.15-.07.25.22.33.55.23.85,0-.16-.05-.31-.18-.43-.22-.2-.56-.18-.76.04-.2.22-.18.56.04.76.13.11.29.15.45.12-.28.13-.62.08-.87-.13-.33-.3-.37-.81-.07-1.15ZM9.41,12.98c.07-.44.48-.75.93-.68.33.05.57.29.66.59-.08-.14-.21-.24-.38-.27-.29-.04-.57.16-.61.45-.05.29.15.56.45.61.17.02.33-.03.44-.14-.17.26-.48.41-.8.36-.44-.07-.75-.48-.68-.93ZM11.1,18.13c-.41.18-.89,0-1.07-.41-.18-.41,0-.89.41-1.07.3-.13.64-.07.87.14-.14-.07-.31-.09-.46-.02-.27.12-.39.44-.27.71.12.27.44.39.71.27.16-.07.26-.2.3-.35,0,.31-.18.6-.48.73ZM14.24,21.13c-.25.37-.75.48-1.12.23-.37-.25-.48-.75-.23-1.12.18-.27.5-.4.81-.35-.16.02-.31.1-.4.24-.16.25-.1.58.15.74.25.16.58.1.74-.15.09-.14.11-.31.06-.46.17.26.17.6,0,.88ZM17.68,22.76c-.45,0-.81-.37-.8-.82,0-.33.21-.61.49-.73-.13.1-.21.24-.21.41,0,.3.23.54.53.54.29,0,.54-.23.54-.53,0-.17-.08-.32-.2-.42.28.13.47.42.47.74,0,.45-.37.81-.82.8ZM22.28,21.47c-.38.24-.88.12-1.12-.26-.17-.28-.16-.62.01-.88-.05.15-.04.32.05.46.16.25.49.33.74.17.25-.16.33-.49.17-.74-.09-.15-.24-.23-.39-.25.31-.04.62.09.8.37.24.38.12.88-.26,1.12ZM25.45,17.9c-.19.41-.68.58-1.08.39-.3-.14-.47-.44-.46-.75.04.15.14.29.29.36.27.13.59.01.71-.26.13-.27.01-.59-.25-.71-.15-.07-.32-.06-.46,0,.23-.2.57-.26.87-.12.4.19.58.67.39,1.08ZM25.48,14.09c-.33.04-.63-.12-.79-.38.11.11.27.17.44.15.29-.04.5-.31.46-.6-.04-.29-.31-.5-.6-.46-.17.02-.31.12-.39.25.09-.29.34-.53.67-.57.44-.06.85.25.91.7.06.44-.25.85-.7.91Z"/>
  <path class="cls-1" d="M10.37,2.71c.29-.19.66-.15.9.07-.02-.1-.05-.19-.11-.28-.23-.37-.72-.47-1.08-.24-.37.23-.47.72-.24,1.08.06.09.13.16.21.22-.09-.31.03-.66.32-.85Z"/>
  <path class="cls-1" d="M13.93,1.09c.33-.1.67.04.85.32.01-.1,0-.2-.03-.3-.12-.42-.56-.65-.97-.53-.42.12-.65.56-.53.97.03.1.08.19.14.27,0-.33.21-.63.54-.73Z"/>
  <path class="cls-1" d="M17.8.54c.34,0,.63.23.72.54.04-.09.06-.19.06-.3,0-.43-.35-.79-.78-.79s-.79.35-.79.78c0,.1.02.21.06.3.09-.31.38-.54.73-.54Z"/>
  <path class="cls-1" d="M21.68,1.1c.33.1.54.41.54.74.06-.08.11-.17.14-.28.12-.42-.12-.85-.53-.98-.42-.12-.85.12-.98.53-.03.1-.04.21-.03.31.17-.28.52-.42.85-.32Z"/>
  <path class="cls-1" d="M25.23,2.73c.29.19.41.54.31.85.08-.06.15-.13.21-.22.23-.36.13-.85-.23-1.08-.36-.23-.85-.13-1.08.23-.06.09-.09.18-.11.28.25-.21.62-.25.9-.06Z"/>
  <path class="cls-1" d="M28.18,5.3c.23.26.24.63.06.9.09-.03.18-.08.26-.15.33-.28.37-.78.08-1.11-.28-.33-.78-.36-1.11-.08-.08.07-.14.15-.19.24.3-.14.66-.07.88.19Z"/>
  <path class="cls-1" d="M30.3,8.6c.14.31.05.67-.19.89.1,0,.2-.02.29-.07.39-.18.57-.65.39-1.04-.18-.4-.65-.57-1.04-.39-.1.04-.18.1-.25.18.32-.05.65.12.8.43Z"/>
  <path class="cls-1" d="M31.39,12.35c.05.34-.14.66-.44.8.1.02.2.03.31.02.43-.06.73-.46.67-.89-.06-.43-.46-.73-.89-.67-.1.02-.2.05-.29.1.33.04.59.3.64.64Z"/>
  <path class="cls-1" d="M31.25,15.45c-.1-.02-.21,0-.3.02.3.14.48.46.44.8-.05.34-.32.6-.65.64.08.05.18.09.29.1.43.06.83-.23.89-.67.06-.43-.23-.83-.66-.89Z"/>
  <path class="cls-1" d="M30.28,20.02c-.14.31-.47.48-.8.43.07.07.15.13.25.18.39.18.86,0,1.04-.39.18-.4,0-.86-.39-1.04-.1-.04-.2-.07-.29-.07.25.21.33.57.19.89Z"/>
  <path class="cls-1" d="M28.16,23.31c-.23.26-.59.33-.89.19.04.09.1.17.19.24.33.29.82.25,1.11-.08.28-.33.25-.82-.08-1.11-.08-.07-.17-.12-.27-.15.18.28.16.65-.06.91Z"/>
  <path class="cls-1" d="M25.19,25.86c-.29.19-.66.15-.91-.07.02.1.05.19.11.28.23.36.72.47,1.08.24.36-.23.47-.72.24-1.08-.06-.09-.13-.16-.21-.22.09.31-.03.67-.32.85Z"/>
  <path class="cls-1" d="M21.63,27.49c-.33.1-.67-.04-.85-.32-.01.1,0,.2.03.3.12.42.56.66.97.53.42-.12.66-.56.53-.97-.03-.1-.08-.19-.14-.27,0,.33-.21.63-.54.73Z"/>
  <path class="cls-1" d="M13.88,27.47c-.33-.1-.54-.4-.54-.73-.06.08-.11.17-.14.27-.12.42.11.85.53.98.42.12.85-.11.98-.53.03-.1.04-.21.03-.31-.17.28-.52.42-.85.32Z"/>
  <path class="cls-1" d="M10.33,25.84c-.29-.19-.41-.54-.31-.85-.08.06-.15.13-.21.22-.24.37-.13.85.23,1.09.37.23.85.13,1.09-.23.06-.09.1-.19.11-.29-.25.22-.62.25-.91.07Z"/>
  <path class="cls-1" d="M7.37,23.27c-.23-.26-.24-.63-.06-.91-.1.03-.19.08-.27.15-.33.28-.36.78-.08,1.11.28.33.78.37,1.11.08.08-.07.14-.15.19-.24-.3.14-.66.07-.89-.19Z"/>
  <path class="cls-1" d="M5.26,19.98c-.14-.31-.05-.67.19-.88-.1,0-.2.02-.29.07-.4.18-.57.65-.39,1.04.18.4.65.57,1.04.39.1-.04.18-.1.25-.18-.32.05-.65-.12-.8-.44Z"/>
  <path class="cls-1" d="M4.17,16.22c-.05-.34.14-.66.44-.79-.1-.03-.2-.03-.3-.02-.43.06-.73.46-.67.89s.46.73.89.67c.1-.02.2-.05.29-.1-.33-.04-.59-.3-.64-.64Z"/>
  <path class="cls-1" d="M4.18,12.31c.05-.34.32-.6.64-.64-.08-.05-.18-.08-.29-.1-.43-.06-.83.23-.89.66-.06.43.23.83.66.89.1.02.21,0,.31-.02-.3-.14-.48-.46-.44-.8Z"/>
  <path class="cls-1" d="M5.28,8.55c.15-.31.48-.48.8-.43-.07-.07-.15-.14-.25-.18-.4-.18-.86,0-1.04.39-.18.4,0,.86.39,1.04.1.04.2.07.3.07-.25-.21-.34-.57-.19-.89Z"/>
  <path class="cls-1" d="M7.4,5.27c.23-.26.59-.33.89-.19-.04-.09-.11-.17-.19-.24-.33-.28-.82-.25-1.11.08-.29.33-.25.82.08,1.11.08.07.17.12.27.15-.18-.28-.16-.65.06-.91Z"/>
  <path class="cls-1" d="M30.94,15.47s0,0,.01,0c0,0,0,0-.01,0h0c.04-.39.05-.78.05-1.18s-.02-.76-.05-1.13c0,0,0,0,0,0,0,0,0,0,0,0-.04-.48-.11-.96-.2-1.43,0,0,0,0,0,0,0,0,0,0,0,0-.15-.77-.37-1.51-.65-2.22,0,0,0,0,0,0,0,0,0,0-.01,0-.18-.45-.38-.89-.6-1.31,0,0,0,0,0,0,0,0,0,0-.01,0-.36-.69-.78-1.34-1.25-1.95,0,0,0,0,0-.01,0,0,0,0-.01,0-.29-.38-.61-.74-.94-1.08,0,0,0-.01,0-.02,0,0,0,0-.02,0-.53-.56-1.12-1.06-1.74-1.52,0,0,0,0,0-.01,0,0,0,0-.01,0-.39-.28-.79-.54-1.21-.78,0,0,0,0,0-.01,0,0,0,0,0,0-.67-.38-1.37-.71-2.1-.97-.45-.16-.92-.3-1.39-.41,0,0,0,0,0,0t0,0c-.74-.17-1.51-.29-2.29-.33,0,0,0-.01,0-.02,0,0,0,.01,0,.02-.25-.02-.49-.02-.74-.02-.23,0-.46,0-.7.02,0,0,0,0,0-.01,0,0,0,0,0,.01-.78.04-1.55.15-2.29.32,0,0,0,0,0,0,0,0,0,0,0,0-.47.11-.93.25-1.38.41,0,0,0,0,0,0,0,0,0,0,0,.01-.73.26-1.44.58-2.11.96,0,0,0,0,0,0,0,0,0,0,0,.01-.42.24-.82.5-1.21.78,0,0-.01,0-.02,0,0,0,0,.01,0,.02-.63.45-1.21.96-1.75,1.51,0,0,0,0-.01,0,0,0,0,0,0,.01-.34.34-.65.71-.95,1.09,0,0,0,0-.01,0,0,0,0,0,0,.01-.47.61-.9,1.26-1.26,1.94,0,0,0,0,0,0,0,0,0,0,0,0-.22.42-.42.86-.6,1.31,0,0,0,0,0,0,0,0,0,0,0,0-.28.71-.5,1.46-.66,2.22h0s0,0,0,0c-.09.47-.16.94-.21,1.43,0,0,0,0-.01,0,0,0,0,0,.01,0-.04.39-.05.78-.05,1.18s.02.76.05,1.13c0,0,0,0-.01,0,0,0,0,0,.01,0,.04.48.11.96.2,1.43,0,0,0,0,0,0,0,0,0,0,0,0,.15.77.37,1.51.65,2.22,0,0,0,0,0,0,0,0,0,0,0,0,.18.45.38.89.6,1.31,0,0,0,0,0,0,0,0,0,0,0,0,.36.69.78,1.34,1.25,1.95,0,0,0,0,0,0,0,0,0,0,.01,0,.29.38.61.74.94,1.09,0,0,0,0,0,.01,0,0,0,0,.01,0,.53.56,1.12,1.06,1.74,1.52,0,0,0,0,0,.01,0,0,0,0,.01,0,.39.28.79.55,1.21.79,0,0,0,0,0,0,0,0,0,0,0,0,.67.38,1.37.71,2.1.97,0,0,0,0,0,0,0,0,0,0,0,0,.45.16.91.3,1.39.41,0,0,0,0,0,0h0c.5.11,1.01.2,1.53.26v4.54h2.75v-4.52c.6-.05,1.19-.15,1.76-.28,0,0,0,0,0,0,0,0,0,0,0,0,.47-.11.93-.25,1.38-.41,0,0,0,0,0,0h0c.73-.27,1.44-.59,2.1-.97,0,0,0,0,0,0,0,0,0,0,0-.01.42-.24.83-.5,1.21-.78,0,0,0,0,.01,0,0,0,0,0,0-.01.63-.45,1.21-.96,1.75-1.51,0,0,0,0,.01,0,0,0,0,0,0-.01.33-.34.65-.71.95-1.09,0,0,0,0,.01,0,0,0,0,0,0,0,.47-.61.89-1.26,1.26-1.94,0,0,0,0,.01,0,0,0,0,0,0,0,.23-.42.43-.86.6-1.31,0,0,0,0,0,0,0,0,0,0,0,0,.28-.71.5-1.45.65-2.22,0,0,0,0,0,0,0,0,0,0,0,0,.09-.47.16-.94.21-1.43ZM17.76,28.04c-.35,0-.64-.23-.73-.55,0,0,0,0,0-.01.25.02.49.02.74.02.23,0,.47,0,.7-.02,0,0,0,0,0,.01-.09.32-.38.55-.73.55ZM17.78,26.28c-6.61,0-11.99-5.38-11.99-11.99S11.17,2.29,17.78,2.29s11.99,5.38,11.99,11.99-5.38,11.99-11.99,11.99Z"/>
  <path class="cls-1" d="M14.56,13.39c1.25.72,2.44.76,2.93.74-.23-.43-.85-1.44-2.1-2.16-1.25-.72-2.44-.75-2.93-.74.23.44.85,1.44,2.1,2.17ZM15.2,12.34c.67.39,1.01.9,1.14,1.12-.26,0-.88-.04-1.54-.43-.67-.39-1.01-.9-1.15-1.12.26,0,.88.04,1.54.43Z"/>
  <path class="cls-1" d="M14.57,15.2c-1.25.72-1.87,1.73-2.1,2.16.49.02,1.68-.02,2.93-.74,1.25-.72,1.87-1.73,2.11-2.17-.5-.01-1.68.02-2.93.74ZM15.2,16.24c-.67.39-1.29.43-1.54.43.13-.22.48-.74,1.15-1.12.67-.38,1.29-.43,1.54-.43-.13.22-.48.74-1.14,1.12Z"/>
  <path class="cls-1" d="M16.97,17.52c0,1.44.56,2.48.82,2.91.26-.42.82-1.46.82-2.91s-.56-2.49-.82-2.91c-.26.42-.82,1.46-.82,2.91ZM17.78,19.05c-.13-.23-.4-.78-.4-1.55s.27-1.33.4-1.55c.13.22.4.78.4,1.55s-.27,1.33-.4,1.55Z"/>
  <path class="cls-1" d="M21,15.18c-1.25-.72-2.44-.75-2.93-.74.23.44.85,1.44,2.1,2.17,1.25.72,2.44.75,2.93.74-.23-.43-.85-1.44-2.1-2.16ZM20.36,16.24c-.67-.38-1.01-.9-1.14-1.12.26,0,.87.04,1.54.43.67.38,1.01.9,1.15,1.12-.26,0-.87-.04-1.54-.43Z"/>
  <path class="cls-1" d="M20.99,13.37c1.25-.72,1.87-1.73,2.1-2.17-.49-.01-1.68.02-2.93.74-1.25.72-1.87,1.73-2.1,2.16.49.01,1.68-.02,2.93-.74ZM20.36,12.34c.67-.38,1.29-.43,1.54-.43-.13.22-.48.74-1.15,1.12-.67.39-1.29.43-1.54.43.13-.22.48-.74,1.14-1.12Z"/>
  <path class="cls-1" d="M18.59,11.05c0-1.44-.56-2.49-.82-2.91-.26.42-.82,1.46-.82,2.91s.56,2.48.82,2.91c.26-.42.82-1.46.82-2.91ZM17.78,9.53c.13.23.4.78.4,1.55s-.27,1.33-.4,1.55c-.13-.23-.4-.78-.4-1.55s.27-1.33.4-1.55Z"/>
  <polygon class="cls-1" points="16.25 44.63 16.27 44.63 16.27 44.62 16.25 44.63"/>
  <polygon class="cls-1" points="16.25 47.54 16.27 47.56 16.27 47.54 16.25 47.54"/>
  <path class="cls-1" d="M34.34,27.29c1.29-3.79,1.22-7.43-.22-10.8-.22-.52-.48-1.04-.77-1.55,0,0,0,0,0,0,.15-.23.21-.51.15-.79-.11-.51-.56-.86-1.07-.86-.08,0-.15,0-.23.02-.59.12-.97.69-.85,1.28.11.51.56.86,1.07.86.08,0,.15,0,.23-.02.19-.04.37-.13.5-.25,0,0,0,0,0,0,.26.47.5.95.7,1.43,1.42,3.33,1.48,6.91.2,10.65-.64.45-1.28.89-1.92,1.34.02.17.08.52.33.84.33.42.78.53,1.03.6.19.05.7.18,1.2-.02.26-.11.46-.29.47-.3.12-.11.19-.21.23-.27-.35-.71-.7-1.42-1.05-2.14ZM32.55,14.97s-.08.01-.13.01c-.29,0-.55-.21-.61-.49-.07-.33.15-.66.49-.73.04,0,.08-.01.13-.01.29,0,.55.21.61.49.04.16,0,.32-.08.46l-.06.03s0,.02.02.03c-.09.11-.21.19-.36.22Z"/>
  <path class="cls-1" d="M1.71,16.6c.2-.48.44-.96.7-1.43.14.12.31.21.5.25.08.02.15.02.23.02.51,0,.96-.35,1.07-.86.12-.58-.26-1.15-.85-1.28-.07-.01-.15-.02-.22-.02-.51,0-.96.35-1.07.86-.06.29,0,.57.15.79,0,0,0,0,0,0-.29.51-.55,1.03-.77,1.55C0,19.87-.07,23.5,1.22,27.29c-.35.71-.7,1.42-1.05,2.14.04.06.12.16.23.27.02.02.21.19.47.3.5.21,1.01.07,1.2.02.25-.07.7-.18,1.03-.6.26-.33.32-.67.33-.84-.64-.45-1.28-.89-1.92-1.34-1.28-3.74-1.22-7.32.2-10.65ZM2.52,14.24c.06-.29.32-.49.62-.49.04,0,.09,0,.13.01.34.07.56.4.49.73-.06.29-.32.49-.61.49-.04,0-.09,0-.13-.01-.15-.03-.27-.11-.36-.22,0,0,0,0,0,0,0,0,0-.02.01-.03l-.06-.03c-.08-.13-.12-.29-.09-.46Z"/>
</svg>