<?xml version="1.0" encoding="UTF-8"?>
<svg id="_图层_1" data-name="图层 1" xmlns="http://www.w3.org/2000/svg" viewBox="0 0 28.35 40.93">
  <defs>
    <style>
      .cls-1 {
        fill: #d3df45;
      }
    </style>
  </defs>
  <path class="cls-1" d="M10.49,37.26c0,.61,1.95,1.27,3.71,1.26,1.73,0,3.66-.65,3.66-1.26,0-.21-.23-.45-.91-.72-.53.24-1.5.6-2.76.6-1.26,0-2.23-.36-2.76-.6-.76.28-.95.53-.95.72Z"/>
  <path class="cls-1" d="M17.84,37.93s0,.02,0,.03c0,.61-1.93,1.26-3.66,1.26-1.77,0-3.72-.66-3.71-1.26,0,0,0-.02,0-.03-1.03.31-1.68.76-1.68,1.25,0,.95,2.4,1.72,5.37,1.72s5.36-.77,5.36-1.72c0-.49-.65-.94-1.68-1.25Z"/>
  <path class="cls-1" d="M15.49,32.08c-.27.11-.73.27-1.33.27h-.02c-.6,0-1.06-.15-1.33-.27-.01.71-.12,1.69-.54,2.76-.17.42-.35.8-.54,1.11.51.2,1.35.46,2.42.47,1.07,0,1.91-.27,2.42-.47-.19-.32-.37-.69-.54-1.11-.42-1.07-.53-2.05-.54-2.76Z"/>
  <path class="cls-1" d="M14.14,31.1c-.25-3.97-.26-7.96-.03-11.94-1.12-1.66-2.23-3.33-3.35-5,1.01,5.65,2.01,11.29,3.02,16.94.12,0,.24,0,.36,0Z"/>
  <path class="cls-1" d="M14.15,17.47c1.13-1.1,2.26-2.21,3.39-3.31-1.12,1.67-2.24,3.33-3.35,5,.23,3.98.22,7.97-.03,11.94.12,0,.24,0,.36,0,1.26-7.05,2.52-14.11,3.77-21.17-1.38,2.1-2.76,4.2-4.14,6.31-1.38-2.1-2.76-4.2-4.14-6.31.25,1.41.5,2.82.75,4.23,1.13,1.1,2.26,2.21,3.39,3.31Z"/>
  <path class="cls-1" d="M18.29,9.94c-1.38-3.31-2.76-6.62-4.14-9.94-1.38,3.31-2.76,6.62-4.14,9.94,1.38,1.38,2.76,2.76,4.14,4.14,1.38-1.38,2.76-2.76,4.14-4.14ZM12.63,8.17c0-2.25,1.03-3.88,1.52-4.55,0,0,0-.01.01-.02.48.66,1.53,2.3,1.53,4.57s-1.05,3.91-1.53,4.57c0,0,0-.01-.01-.02-.49-.67-1.52-2.3-1.52-4.55Z"/>
  <path class="cls-1" d="M14.16,10.91c.27-.37.85-1.27.85-2.53s-.58-2.16-.85-2.53c0,0,0,.01-.01.02-.27.38-.84,1.27-.84,2.51s.56,2.13.84,2.51c0,0,0,.01.01.02Z"/>
  <path class="cls-1" d="M15.33,31.34c1.44-3.71,3.1-7.32,4.97-10.82-.32-1.99-.63-3.98-.95-5.97-1.45,5.54-2.9,11.09-4.35,16.64.11.05.22.1.32.15Z"/>
  <path class="cls-1" d="M20.45,10.4h0c-.36,1.38-.73,2.77-1.09,4.15.56,1.49,1.12,2.97,1.68,4.46h0c1.48-.51,2.97-1.02,4.45-1.53.82-1.17,1.63-2.33,2.45-3.5h0c-2.13,1.31-4.26,2.61-6.39,3.92-.37-2.5-.74-5-1.11-7.5Z"/>
  <path class="cls-1" d="M20.45,10.4c.67,1.84,1.34,3.69,2.02,5.53,1.83-.65,3.65-1.3,5.48-1.96.14-3.59.27-7.18.41-10.78-2.64,2.4-5.27,4.8-7.9,7.2ZM26.33,11.26c-.95,2.06-2.59,3.08-3.3,3.48,0,0,0-.01,0-.02-.16-.82-.41-2.74.53-4.78.94-2.04,2.56-3.06,3.28-3.46h0s.01,0,.02-.01c.16.81.42,2.74-.52,4.8Z"/>
  <path class="cls-1" d="M15.35,31.35c.11.05.22.11.33.16,3.27-4.68,6.55-9.35,9.82-14.03-1.71,1.02-3.42,2.05-5.13,3.07-1.45,3.7-3.13,7.31-5.02,10.8Z"/>
  <path class="cls-1" d="M25.9,8.51c-.4.22-1.29.79-1.81,1.91-.52,1.12-.38,2.18-.3,2.64,0,0,0,.01,0,.02.4-.22,1.3-.79,1.83-1.92.53-1.14.38-2.21.29-2.66,0,0-.01,0-.02.01Z"/>
  <path class="cls-1" d="M7.9,10.4C5.27,8,2.64,5.6,0,3.2c.14,3.6.27,7.19.41,10.78,1.83.65,3.65,1.3,5.48,1.96.67-1.84,1.34-3.69,2.02-5.53ZM5.32,14.74c-.71-.39-2.35-1.42-3.3-3.48-.95-2.05-.68-3.99-.52-4.8,0,0,.01,0,.02.01.72.4,2.34,1.43,3.28,3.46.94,2.04.69,3.96.53,4.78,0,0,0,.01,0,.02Z"/>
  <path class="cls-1" d="M7.31,19.01c.56-1.49,1.12-2.97,1.68-4.46-.36-1.38-.72-2.77-1.09-4.15h0c-.37,2.5-.74,5-1.11,7.5-2.13-1.31-4.26-2.61-6.39-3.92H.41c.82,1.17,1.63,2.34,2.45,3.5,1.48.51,2.97,1.02,4.45,1.53h0Z"/>
  <path class="cls-1" d="M13.02,31.34c.11-.05.22-.1.32-.15-1.45-5.54-2.9-11.09-4.35-16.64-.31,1.99-.63,3.98-.95,5.97,1.87,3.5,3.54,7.11,4.97,10.82Z"/>
  <path class="cls-1" d="M13,31.35c-1.89-3.49-3.57-7.1-5.02-10.8-1.71-1.02-3.42-2.05-5.13-3.07,3.27,4.68,6.55,9.35,9.82,14.03.11-.05.22-.11.33-.16Z"/>
  <path class="cls-1" d="M2.45,8.51s-.01,0-.02-.01c-.09.45-.24,1.52.29,2.66.53,1.14,1.43,1.71,1.83,1.92,0,0,0-.01,0-.02.09-.46.22-1.51-.3-2.64-.52-1.12-1.41-1.69-1.81-1.91Z"/>
</svg>