<?xml version="1.0" encoding="UTF-8"?>
<svg id="_图层_1" data-name="图层 1" xmlns="http://www.w3.org/2000/svg" viewBox="0 0 28.35 51.85">
  <defs>
    <style>
      .cls-1 {
        fill: #876ca8;
      }
    </style>
  </defs>
  <path class="cls-1" d="M12.65,35.68c.12-.87-.3-1.92-1.08-2.74-.85-.89-1.99-1.37-2.92-1.24-.13.93.37,2.07,1.26,2.91.83.78,1.88,1.19,2.75,1.06Z"/>
  <path class="cls-1" d="M11.89,37.2c.66,0,1.32-.11,1.97-.31.71-2.22.19-4.65-1.37-6.34-1.22-1.32-2.94-2.04-4.7-2.04-.66,0-1.33.1-1.99.31-.77,2.39-.09,5.01,1.72,6.69,1.17,1.08,2.7,1.67,4.27,1.69-1.57.02-3.09.6-4.27,1.68-1.81,1.68-2.49,4.3-1.72,6.69.65.21,1.32.31,1.99.31,1.77,0,3.48-.72,4.7-2.03,1.56-1.69,2.08-4.12,1.37-6.34-.64-.21-1.31-.31-1.97-.31ZM8.26,34.72c-1.37-1.27-1.96-3.19-1.58-5.03.37-.08.74-.12,1.11-.12,1.49,0,2.92.62,3.91,1.69,1.17,1.27,1.64,3.03,1.28,4.73-.37.08-.74.12-1.12.12-1.35,0-2.63-.5-3.61-1.4ZM11.7,43.12c-.99,1.07-2.42,1.69-3.91,1.69-.37,0-.75-.04-1.11-.12-.38-1.84.21-3.76,1.58-5.02.98-.9,2.26-1.4,3.61-1.4.38,0,.75.04,1.12.12.36,1.7-.11,3.46-1.28,4.73Z"/>
  <path class="cls-1" d="M20.83,38.88c-1.17-1.08-2.7-1.67-4.26-1.68,1.57-.02,3.09-.6,4.26-1.69,1.82-1.68,2.49-4.3,1.72-6.69-.65-.21-1.33-.31-1.99-.31-1.76,0-3.48.72-4.7,2.04-1.56,1.69-2.08,4.12-1.37,6.34.65.21,1.31.31,1.97.31-.66,0-1.32.11-1.97.31-.72,2.22-.2,4.65,1.37,6.34,1.22,1.32,2.94,2.03,4.7,2.03.67,0,1.34-.1,1.99-.31.77-2.39.09-5.01-1.72-6.69ZM15.37,36c-.36-1.7.11-3.46,1.28-4.73.99-1.07,2.42-1.69,3.91-1.69.37,0,.75.04,1.11.12.38,1.84-.2,3.76-1.57,5.03-.98.9-2.26,1.4-3.61,1.4-.38,0-.75-.04-1.12-.12ZM21.67,44.69c-.36.08-.74.12-1.11.12-1.49,0-2.92-.62-3.91-1.69-1.17-1.27-1.64-3.03-1.28-4.73.37-.08.74-.12,1.12-.12,1.35,0,2.63.5,3.61,1.4,1.37,1.27,1.96,3.19,1.57,5.02Z"/>
  <path class="cls-1" d="M19.7,31.69c-.93-.13-2.08.35-2.92,1.24-.79.82-1.2,1.87-1.08,2.74.86.12,1.92-.28,2.75-1.06.89-.84,1.38-1.98,1.26-2.91Z"/>
  <path class="cls-1" d="M15.68,38.71c-.13.93.37,2.07,1.26,2.91.83.78,1.88,1.19,2.75,1.06.12-.87-.3-1.92-1.08-2.74-.85-.89-1.99-1.37-2.92-1.24Z"/>
  <path class="cls-1" d="M9.76,39.91c-.79.82-1.2,1.87-1.08,2.74.86.12,1.92-.28,2.75-1.06.89-.84,1.38-1.98,1.26-2.91-.93-.13-2.08.35-2.92,1.24Z"/>
  <path class="cls-1" d="M24.2,27.17c-2.61-2.61-6-3.99-9.43-4.13v-11.55c2.13-5.03,2.59-9.26,1.15-10.81-.41-.45-.98-.67-1.68-.68-.69,0-1.25.24-1.67.68-1.43,1.54-.98,5.78,1.15,10.81v11.54c-3.48.11-6.94,1.49-9.59,4.14-2.68,2.68-4.15,6.24-4.15,10.03s1.48,7.35,4.15,10.02c2.68,2.68,6.24,4.15,10.02,4.15s7.35-1.47,10.03-4.15c5.53-5.53,5.53-14.52,0-20.05ZM13.35,1.39c.22-.23.52-.35.91-.35.4,0,.7.12.92.35.88.94.8,4.15-.92,8.62-1.71-4.47-1.79-7.68-.91-8.62ZM23.19,46.21c-2.41,2.41-5.61,3.73-9.01,3.73s-6.61-1.33-9.01-3.73-3.73-5.61-3.73-9.01,1.32-6.61,3.73-9.01c2.49-2.49,5.75-3.73,9.01-3.73s6.53,1.24,9.01,3.73c4.97,4.97,4.97,13.05,0,18.02Z"/>
  <path class="cls-1" d="M14.18,25.45c-1.01,0-3.24.13-5.61,1.48.54.08,2.49.43,4.02,2.17,1.28,1.46,1.52,3.06,1.59,3.65.06-.59.31-2.19,1.59-3.65,1.53-1.74,3.49-2.09,4.02-2.17-2.37-1.35-4.6-1.48-5.61-1.48ZM14.15,29.1c-.74,0-1.33-.6-1.33-1.33s.6-1.33,1.33-1.33,1.33.6,1.33,1.33-.6,1.33-1.33,1.33Z"/>
  <path class="cls-1" d="M15.77,45.3c-1.28-1.46-1.53-3.06-1.59-3.65-.06.59-.31,2.19-1.59,3.65-1.53,1.74-3.49,2.09-4.02,2.17,2.37,1.35,4.6,1.48,5.61,1.48s3.24-.13,5.61-1.48c-.54-.07-2.5-.42-4.02-2.17ZM14.15,48.21c-.74,0-1.33-.6-1.33-1.33s.6-1.33,1.33-1.33,1.33.6,1.33,1.33-.6,1.33-1.33,1.33Z"/>
  <path class="cls-1" d="M24.44,31.59c-.07.54-.42,2.5-2.17,4.02-1.46,1.28-3.06,1.53-3.65,1.59.59.06,2.19.31,3.65,1.59,1.74,1.53,2.09,3.49,2.17,4.02,1.35-2.37,1.48-4.6,1.48-5.61s-.13-3.24-1.48-5.61ZM23.88,38.54c-.74,0-1.33-.6-1.33-1.33s.6-1.33,1.33-1.33,1.33.6,1.33,1.33-.6,1.33-1.33,1.33Z"/>
  <path class="cls-1" d="M6.08,35.61c-1.74-1.53-2.09-3.49-2.17-4.02-1.35,2.37-1.48,4.6-1.48,5.61s.14,3.24,1.48,5.61c.07-.54.43-2.5,2.17-4.02,1.46-1.28,3.06-1.52,3.65-1.59-.59-.06-2.19-.31-3.65-1.59ZM4.66,38.54c-.74,0-1.33-.6-1.33-1.33s.6-1.33,1.33-1.33,1.33.6,1.33,1.33-.6,1.33-1.33,1.33Z"/>
</svg>