<?xml version="1.0" encoding="UTF-8"?>
<svg id="_图层_1" data-name="图层 1" xmlns="http://www.w3.org/2000/svg" viewBox="0 0 28.35 45.34">
  <defs>
    <style>
      .cls-1 {
        fill: #e84a89;
      }
    </style>
  </defs>
  <path class="cls-1" d="M1.6,5.54c.44.5.63,1.02.71,1.31.22-.44.83-1.49,2.08-2.25.42-.25,1.48-.82,2.95-.79-.21-.21-.58-.62-.81-1.25-.19-.52-.21-.98-.2-1.27h0s0-.03,0-.04,0-.03,0-.04c0-.14-.03-.28-.1-.39-.17-.29-.54-.43-1.03-.43-.74,0-1.74.32-2.73.91h-.02s-.02.02-.02.02C1.04,2.16.12,3.28.12,4.05c0,.15.03.28.1.39.07.12.17.21.29.28,0,0,0,0,.02,0,.02,0,.04.02.06.03.13.07.29.16.47.29.17.13.36.29.54.5Z"/>
  <path class="cls-1" d="M6.29,7.29c-1.29.66-1.95,1.76-2.24,2.46l5.06,8.55c.68-.8,1.24-1.68,1.67-2.64.62-1.4.94-2.97.92-4.52h.01c-.85-1.43-1.7-2.87-2.55-4.3-.67-.1-1.75-.11-2.87.46Z"/>
  <path class="cls-1" d="M9.42,18.81l1.11,1.87.24.4h0c.56-.6,1.29-1.5,1.88-2.74.75-1.58.95-3.02,1.01-3.92-.47-.79-.94-1.58-1.41-2.38-.09,1.32-.41,2.64-.94,3.84-.47,1.08-1.1,2.06-1.89,2.93ZM10.68,19.7c-.15.16-.41.17-.57.02-.16-.15-.17-.41-.02-.57.15-.17.4-.17.57-.02.16.15.17.41.02.57ZM12.41,14.04c.02-.22.22-.39.44-.36.22.02.38.22.36.45-.02.22-.22.38-.44.36-.22-.02-.38-.22-.36-.44ZM12.15,15.43c.06-.21.28-.34.49-.28s.34.28.28.5c-.06.22-.28.34-.49.29-.21-.06-.34-.28-.28-.5ZM11.67,16.79c.09-.21.33-.29.53-.2.2.09.29.34.2.54-.09.2-.33.29-.53.2-.2-.09-.29-.33-.2-.54ZM11.53,17.92c.19.12.23.38.11.56-.12.18-.37.24-.55.11-.19-.13-.23-.38-.11-.56.12-.19.37-.23.55-.11Z"/>
  <path class="cls-1" d="M17.71,21.07h0s.24-.39.24-.39l1.11-1.87c-.78-.88-1.41-1.86-1.89-2.93-.53-1.2-.85-2.51-.94-3.84-.47.79-.94,1.59-1.41,2.38.06.9.26,2.34,1.01,3.92.6,1.24,1.32,2.14,1.88,2.73ZM17.81,19.13c.16-.15.42-.15.57.02.15.16.14.42-.02.57-.16.15-.42.15-.57-.02-.15-.16-.14-.42.02-.57ZM16.94,17.92c.18-.13.43-.08.56.11.13.19.08.44-.11.56-.18.13-.43.07-.56-.11-.13-.19-.08-.44.11-.56ZM16.8,16.79c.09.2,0,.44-.2.54-.2.09-.44,0-.53-.2-.09-.2,0-.44.2-.54.2-.09.44,0,.53.2ZM15.26,14.12c-.02-.22.14-.42.36-.45.22-.02.42.14.44.36.02.22-.14.42-.36.44-.22.02-.42-.14-.44-.36ZM15.54,15.65c-.06-.22.07-.44.28-.5.21-.06.43.07.49.28.06.22-.07.44-.28.5-.21.06-.43-.07-.49-.29Z"/>
  <path class="cls-1" d="M17.69,15.65c.43.96.99,1.85,1.67,2.64l5.07-8.55c-.3-.69-.95-1.8-2.24-2.46-1.12-.57-2.19-.56-2.87-.46-.85,1.44-1.7,2.87-2.55,4.3h.01c-.02,1.55.3,3.11.92,4.52Z"/>
  <path class="cls-1" d="M25.74,7.52c-.2-.49-.76-1.63-2.03-2.39-1.25-.74-2.5-.7-3.02-.65-.34.57-.68,1.14-1.02,1.71.74-.05,1.73.04,2.76.56,1.24.63,1.95,1.62,2.34,2.38l.06-.1c1.49,4.66,1.93,9.24,1.28,13.31-.68,4.25-2.49,7.54-5.22,9.52-1.06.76-2.27,1.33-3.61,1.7-.11-.85-.2-1.73-.25-2.64-.64.27-1.39.49-2.24.56-.18.02-.37.02-.56.02h0c-.19,0-.37,0-.55-.02-.85-.06-1.6-.28-2.24-.55-.06.9-.14,1.78-.25,2.63-1.35-.37-2.56-.94-3.62-1.7-2.74-1.98-4.54-5.27-5.22-9.52-.65-4.07-.21-8.65,1.28-13.31l.06.1c.39-.76,1.1-1.75,2.34-2.38,1.03-.52,2.02-.61,2.76-.56-.34-.57-.68-1.14-1.02-1.71-.52-.05-1.77-.1-3.02.65-1.27.76-1.83,1.9-2.03,2.39l.25.42C-.62,18.38.99,28.3,7,32.65c1.19.86,2.54,1.49,4.05,1.88-.02.15-.04.29-.07.43-.09.56-.19,1.12-.3,1.65.84.52,2.04,1.03,3.54,1.03h0c1.51,0,2.71-.52,3.55-1.04-.11-.53-.21-1.08-.3-1.64-.03-.14-.05-.29-.07-.44,1.51-.39,2.87-1.02,4.05-1.88,6.01-4.35,7.62-14.26,4.03-24.71l.25-.42ZM20.79,5.77c-.22,0-.41-.17-.42-.39,0-.22.16-.41.38-.42.22,0,.41.16.42.39,0,.22-.16.41-.39.42ZM22.44,5.59c-.06.22-.27.35-.49.3-.21-.06-.35-.28-.29-.49.05-.22.27-.35.49-.3.21.05.35.27.29.49ZM23.59,6.18c-.11.2-.36.26-.55.15-.19-.11-.26-.36-.14-.55.11-.19.36-.26.55-.15.19.11.26.36.15.55ZM7.71,4.96c.22,0,.39.2.39.42,0,.22-.2.4-.42.39-.22,0-.39-.2-.38-.42,0-.22.19-.4.42-.39ZM6.32,5.1c.22-.05.43.08.49.3.05.21-.08.43-.29.49-.22.05-.43-.08-.49-.3s.08-.44.29-.49ZM5.02,5.63c.19-.11.44-.05.55.15.11.19.05.44-.14.55-.19.11-.44.05-.55-.15-.11-.19-.05-.44.14-.55ZM3.91,6.52c.15-.16.4-.17.57-.02.16.15.17.41.02.57-.15.16-.41.17-.57.02-.16-.15-.17-.41-.02-.57ZM3.1,7.67c.1-.2.34-.28.54-.17.2.1.28.35.17.54,0,.01-.01.02-.02.04-.11.17-.33.24-.52.14-.15-.08-.23-.24-.21-.4,0-.05.02-.1.04-.15ZM23.97,7.08c-.15-.16-.15-.42.02-.57.16-.15.42-.15.57.02.15.16.14.42-.02.57-.16.16-.42.15-.57-.02ZM24.67,8.08s-.01-.02-.02-.04c-.1-.2-.02-.44.17-.54.2-.1.44-.02.54.17.02.05.04.1.04.15.02.16-.06.32-.21.4-.19.1-.41.03-.52-.14Z"/>
  <path class="cls-1" d="M26.04,1.32h-.02s-.02-.02-.02-.02c-.99-.6-2-.91-2.73-.91-.49,0-.86.14-1.03.43-.07.12-.1.25-.1.39,0,.01,0,.03,0,.04,0,.01,0,.02,0,.04h0c0,.3-.02.76-.21,1.28-.23.63-.59,1.04-.81,1.25,1.46-.03,2.53.53,2.95.79,1.26.76,1.86,1.81,2.08,2.25.08-.29.27-.81.71-1.31.18-.21.37-.37.55-.5.17-.13.34-.22.47-.29.02,0,.04-.02.06-.03,0,0,0,0,.02,0,.13-.07.23-.16.29-.28.07-.12.1-.25.1-.39,0-.77-.92-1.89-2.31-2.73Z"/>
  <path class="cls-1" d="M10.98,21.74c.29,1.82.5,3.84.53,6.05v.13c.61.27,1.34.5,2.16.57.18.02.36.02.55.02h0c.19,0,.38,0,.56-.02.83-.07,1.55-.3,2.16-.58v-.13c.03-2.2.24-4.23.53-6.05-.61-.59-1.4-1.51-2.06-2.78-.27-.51-.47-1.02-.64-1.5-.42-1.24-.53-2.32-.56-3.04-.03.72-.15,1.8-.56,3.03-.16.48-.37.99-.64,1.51-.65,1.27-1.45,2.19-2.05,2.78Z"/>
  <path class="cls-1" d="M14.8,29.07c-.18.02-.37.02-.56.02h0c-.19,0-.37,0-.55-.02-.81-.06-1.54-.26-2.16-.52,0,.6-.02,1.19-.05,1.76.62.28,1.36.51,2.21.59.18.02.36.02.55.02h0c.19,0,.38,0,.56-.03.85-.08,1.59-.31,2.2-.59-.03-.58-.04-1.17-.05-1.77-.62.26-1.34.46-2.16.52Z"/>
  <path class="cls-1" d="M19.01,41.29c-.4-1.24-.78-2.6-1.1-4.09-.9.53-2.14,1.02-3.67,1.02h0c-1.52,0-2.77-.49-3.67-1.01-.32,1.48-.7,2.84-1.1,4.08.79.67,2.46,1.79,4.77,1.79s3.98-1.12,4.77-1.79ZM18.43,40.65c-.02.09-.08.16-.17.22-.09.06-.18.07-.26.04-.16-.06-.34-.29-.5-.68-.16-.39-.3-.94-.39-1.63.97.88,1.4,1.68,1.32,2.05ZM15.72,39.16c.74,1.12.98,2.01.81,2.34-.04.08-.11.14-.21.17-.1.03-.19.02-.26-.03-.22-.15-.39-.72-.39-1.6,0-.27.02-.56.05-.88ZM10.44,40.86c-.08.03-.16.01-.25-.05-.09-.06-.15-.13-.17-.23,0-.03,0-.06,0-.09,0-.4.44-1.14,1.35-1.93-.19,1.38-.59,2.19-.92,2.3ZM12.37,41.62c-.07.05-.16.06-.26.02-.1-.03-.17-.09-.21-.17-.03-.06-.05-.15-.05-.25,0-.43.28-1.19.89-2.08.12,1.39-.08,2.28-.38,2.48ZM13.97,41.84c-.09-.11-.14-.32-.14-.61,0-.45.12-1.1.41-1.89,0,0,0,0,0,.01.44,1.29.46,2.22.22,2.49-.06.06-.13.09-.22.1,0,0-.02,0-.02,0-.11,0-.19-.04-.24-.11Z"/>
  <path class="cls-1" d="M9.32,41.92c.16.49.69,1.84,2.11,2.71,1.19.73,2.35.73,2.81.71.45.03,1.62.02,2.81-.71,1.42-.88,1.95-2.23,2.11-2.71-.92.73-2.63,1.75-4.92,1.75s-4-1.02-4.92-1.75Z"/>
</svg>