<?xml version="1.0" encoding="UTF-8"?>
<svg id="_图层_1" data-name="图层 1" xmlns="http://www.w3.org/2000/svg" viewBox="0 0 28.35 39.89">
  <defs>
    <style>
      .cls-1 {
        fill: #6dc19b;
      }
    </style>
  </defs>
  <path class="cls-1" d="M8.85,3.13c-.23-.1-.48-.15-.75-.15-1.13,0-2.04.93-2.04,2.08,0,.59.24,1.12.62,1.5.36.35.86.58,1.41.58,1.13,0,2.04-.93,2.04-2.08,0-.88-.53-1.63-1.29-1.94ZM8.16,6.1c-.32,0-.6-.16-.78-.4-.11-.16-.19-.36-.19-.58,0-.54.43-.98.96-.98.06,0,.13,0,.19.02.44.09.78.48.78.96,0,.54-.43.98-.96.98Z"/>
  <path class="cls-1" d="M12.11,4.63c.07-1.27-.28-2.44-.94-3.4-.51.37-.98.77-1.4,1.21-.08.07-.15.15-.23.23-.07.08-.15.16-.22.24t0,0l.06.04s.06.04.09.06c.04.03.08.05.11.08,0,0,0,0,0,0,.04.03.08.06.11.1.21.19.4.42.53.67.02.04.04.08.06.12.07.14.12.29.16.44.05.2.08.41.08.62,0,.42-.11.82-.29,1.17-.07.14-.16.27-.26.39-.05.06-.1.12-.16.18-.43.45-1.04.72-1.7.72-.14,0-.28-.01-.42-.04-.05,0-.1-.02-.15-.03-.11-.03-.21-.06-.31-.1-.05-.02-.11-.05-.16-.07-.05-.03-.1-.05-.15-.08h0c-.05-.04-.1-.07-.15-.1l-.05-.03c-.05.1-.09.2-.13.3-.04.1-.09.2-.13.3-.41.99-.71,1.93-.94,2.73h0c3.12.57,6.48-2.05,6.58-5.73Z"/>
  <path class="cls-1" d="M8.11,4.53c-.32,0-.58.27-.58.59s.26.59.58.59.58-.27.58-.59-.26-.59-.58-.59Z"/>
  <path class="cls-1" d="M20.31,2.99c-.27,0-.52.05-.75.15-.76.3-1.29,1.06-1.29,1.94,0,1.15.92,2.08,2.04,2.08.55,0,1.05-.22,1.42-.58.38-.38.62-.91.62-1.5,0-1.15-.91-2.08-2.04-2.08ZM21.16,5.75c-.19.26-.5.44-.84.44-.57,0-1.04-.47-1.04-1.06,0-.52.36-.94.84-1.04.06-.01.13-.02.2-.02.58,0,1.04.47,1.04,1.06,0,.23-.08.45-.2.62Z"/>
  <path class="cls-1" d="M16.24,4.63c.1,3.68,3.46,6.3,6.58,5.74h0c-.23-.8-.53-1.74-.94-2.74-.04-.1-.08-.2-.13-.3-.04-.1-.08-.2-.13-.3l-.05.03s-.1.07-.15.1h0c-.05.03-.1.06-.15.08-.05.03-.11.05-.16.07-.1.04-.2.07-.31.1-.05.01-.1.03-.15.03-.14.03-.27.04-.42.04-.66,0-1.26-.27-1.7-.72-.05-.05-.11-.11-.16-.18-.1-.12-.18-.25-.26-.39-.18-.35-.29-.74-.29-1.17,0-.21.03-.42.08-.62.04-.15.09-.3.16-.44.02-.04.04-.08.06-.12.14-.25.32-.48.53-.67.04-.04.08-.07.11-.1,0,0,0,0,0,0,.04-.03.07-.05.11-.08.03-.02.06-.04.09-.06l.06-.04s0,0,0,0c-.07-.08-.14-.16-.22-.24-.08-.08-.15-.16-.23-.23-.43-.44-.89-.84-1.4-1.21-.65.96-1.01,2.13-.94,3.4Z"/>
  <path class="cls-1" d="M25.99,31.92c2.09-2.94,2.88-5.48,2-6.49-.35-.39-.91-.46-1.36-.49-.05,0-.1,0-.14-.01-.68-.05-1.98.01-3.89,1.42-.13.09-.25.19-.38.29-2.76,2.19-4.28,5.18-5.02,7,.17-.63,1.51-5.47,4.79-7.99-.06-.19-.1-.39-.1-.61-.01-1.18.91-2.14,2.06-2.15.86-.01,1.6.51,1.93,1.26.22-.01.45-.02.69,0,.16,0,.31.02.48.03.12-1.14.23-3.52-.86-6.09-.27.06-.69.14-1.21.08-.56-.06-.99-.25-1.19-.35,0,0-.05-.03-.11-.06-.52-.29-.77-.43-1.37-1.33-.3-.46-1.08-1.06-3.1-1.65,1.11.26,2.18-.4,2.45-1.36.3-1.05-.42-2.3-1.65-2.55.83.15,1.87.5,2.52,1.39,1.21,1.64.13,3.85,1.35,4.91.37.32,1.02.59,2.23.39-.04-.89-.22-2.57-1.25-4.32-.62-1.07-1.36-1.82-1.91-2.29-.03-.11-.06-.23-.1-.35h0c-3.61.77-7.39-1.88-7.25-5.94.05-1.32.54-2.56,1.31-3.57,0,0,0,0-.01,0-.52-.34-1.38-.79-2.72-1.06h0s0,0,0,0c0,0-.01,0-.02,0,0,0-.01,0-.02,0h0c-1.34.27-2.2.72-2.72,1.07,0,0-.01,0-.01,0,.77,1.01,1.25,2.24,1.3,3.57.14,4.07-3.64,6.72-7.25,5.94h0s0,0,0,0c-.04.12-.07.24-.1.35-.28.24-.6.54-.93.92-.33.38-.67.83-.98,1.37-1.02,1.75-1.21,3.43-1.25,4.32,1.21.2,1.85-.07,2.22-.39,1.22-1.06.15-3.26,1.35-4.91.65-.88,1.69-1.24,2.52-1.39-1.23.25-1.94,1.5-1.64,2.55.27.95,1.34,1.61,2.45,1.36-2.02.59-2.79,1.19-3.1,1.65-.59.9-.85,1.05-1.37,1.33-.05.03-.11.06-.11.06-.2.1-.62.29-1.18.35-.51.06-.94-.01-1.21-.08-1.09,2.57-.98,4.95-.85,6.09.16-.02.32-.03.48-.03.24,0,.47,0,.69,0,.33-.75,1.07-1.27,1.93-1.26,1.15.02,2.07.98,2.06,2.15,0,.21-.03.42-.1.61,3.28,2.52,4.63,7.37,4.79,7.99-.75-1.82-2.26-4.81-5.02-7-.13-.1-.25-.2-.38-.29-1.92-1.41-3.22-1.47-3.89-1.42-.05,0-.09,0-.14.01-.45.03-1.01.1-1.36.49-.88,1.01-.09,3.54,2,6.49.31.31,1.12,1.15,2.12,2.06,0,0,0,0,0,0h-.05c-.19-.17-.44-.28-.73-.28-.6,0-1.08.49-1.08,1.1s.48,1.1,1.08,1.1c.46,0,.86-.3,1.01-.72l.92-.17h0c.12.1.23.19.35.29l-1.03.81c-.09-.02-.19-.03-.29-.03-.75,0-1.35.62-1.35,1.38s.6,1.38,1.35,1.38,1.35-.62,1.35-1.38c0-.14-.03-.28-.07-.41l1.14-.89s0,0,0,0h0c.26.18.5.35.74.49l-.46.66c-.68.02-1.23.59-1.23,1.29s.57,1.29,1.27,1.29,1.27-.58,1.27-1.29c0-.22-.06-.42-.15-.6l.56-.81s.05.01.07.01c.31.04.95.13,1.25-.25.26-.34.12-.86.06-1.02.41.28,1.08.68,1.99.89.69.16,1.28.16,1.72.13.43.03,1.03.03,1.71-.13.91-.21,1.59-.61,2-.89-.05.16-.2.68.06,1.02.29.38.94.29,1.25.25.02,0,.05,0,.07-.01h0s.04,0,.06-.01l.57.82c-.09.18-.15.38-.15.6,0,.71.57,1.29,1.27,1.29s1.27-.58,1.27-1.29-.55-1.27-1.23-1.29l-.48-.69c.22-.14.46-.29.7-.46,0,0,0,0,0,0,.01,0,.02-.02.03-.02l1.17.91c-.04.13-.07.27-.07.41,0,.76.61,1.38,1.35,1.38s1.35-.62,1.35-1.38-.6-1.38-1.35-1.38c-.1,0-.19.01-.29.03l-1.07-.83c.1-.09.21-.17.32-.26h0s0,0,.01-.01l.97.18c.15.42.55.72,1.01.72.6,0,1.08-.49,1.08-1.1s-.48-1.1-1.08-1.1c-.28,0-.53.11-.72.29l-.1-.02c.99-.91,1.8-1.74,2.11-2.05ZM6.73,31.26c-1.49-.89-3-.71-3.38-1.81-.2-.59-.02-1.37.4-1.68.8-.59,2.34.62,2.74.94,2.16,1.7,2.84,4.63,3.08,6.4-.84-2.27-1.94-3.32-2.84-3.85ZM17.6,20.75c-.29-2.26-1.66-3.61-2.05-3.97,1.79.5,3.13,2,3.41,3.82.31,2.02-.76,4.06-2.63,4.98.27-.37,1.61-2.23,1.27-4.83ZM21.88,19.01c.58,1.72-.18,3.71-1.85,4.63.14-.19,1.41-2.04.71-4.29-.61-1.96-2.26-2.76-2.53-2.89,1.67-.03,3.15,1.02,3.67,2.55ZM16.33,13.58c.58-.17.98-.71,1.14-1.15.23-.62.02-1.14.07-1.15.08-.02.7,1.17.34,2.44-.08.27-.37,1.32-1.24,1.57-.4.12-1.09.12-1.39-.36-.23-.39-.13-.99.17-1.22.26-.2.45,0,.91-.13ZM14.18,2.08c.2.34.58,1.11.58,2.14s-.38,1.8-.58,2.15c-.2-.34-.58-1.11-.58-2.15s.38-1.8.58-2.14ZM13.52,8.33c.15-.08.36-.14.65-.15.29,0,.5.06.65.15.96.52.63,2.4-.65,4.72-1.29-2.31-1.61-4.19-.65-4.72ZM10.81,11.28c.05.01-.16.53.07,1.15.16.44.56.98,1.14,1.15.45.13.65-.07.91.13.31.24.41.83.17,1.22-.29.48-.99.48-1.39.36-.86-.26-1.16-1.3-1.24-1.57-.36-1.27.26-2.45.34-2.44ZM8.31,23.64c-1.66-.92-2.43-2.9-1.85-4.63.52-1.53,2-2.58,3.67-2.55-.27.13-1.92.93-2.53,2.89-.71,2.26.57,4.1.71,4.29ZM9.4,20.6c.27-1.82,1.62-3.32,3.41-3.82-.39.36-1.76,1.72-2.05,3.97-.34,2.59,1,4.46,1.27,4.83-1.87-.92-2.93-2.96-2.62-4.98ZM11.01,36.04c.2-.2,2.53-2.6,1.91-5.87-.39-2.1-1.77-3.34-2.21-3.71.24.1,2.6,1.13,3.17,3.62.51,2.24-.63,4.72-2.87,5.96ZM13.11,21.9c-.03-2.29.8-3.83,1.07-4.28.26.44,1.09,1.98,1.06,4.28-.03,2.17-.8,3.6-1.06,4.05-.27-.44-1.04-1.88-1.07-4.05ZM14.46,30.08c.57-2.49,2.92-3.52,3.17-3.62-.45.37-1.82,1.61-2.21,3.71-.61,3.27,1.71,5.67,1.92,5.87-2.24-1.24-3.39-3.72-2.87-5.96ZM25,29.45c-.38,1.1-1.89.92-3.38,1.81-.89.53-2,1.58-2.84,3.85.24-1.78.92-4.7,3.08-6.4.4-.32,1.94-1.53,2.74-.94.42.31.6,1.09.4,1.68Z"/>
  <path class="cls-1" d="M20.3,5.72c.32,0,.58-.27.58-.59s-.26-.59-.58-.59-.58.27-.58.59.26.59.58.59Z"/>
</svg>